<?xml version="1.0" encoding="utf-8"?>
<!-- Generator: Adobe Illustrator 18.0.0, SVG Export Plug-In . SVG Version: 6.00 Build 0)  -->
<!DOCTYPE svg PUBLIC "-//W3C//DTD SVG 1.1//EN" "http://www.w3.org/Graphics/SVG/1.1/DTD/svg11.dtd">
<svg version="1.1" id="Layer_1" xmlns="http://www.w3.org/2000/svg" xmlns:xlink="http://www.w3.org/1999/xlink" x="0px" y="0px"
	 viewBox="0 0 1440 900" enable-background="new 0 0 1440 900" xml:space="preserve">
<path fill="#69B1C4" d="M1424,678.2c0,0-38,0-47.3,0c-9.3,0-33.3-12-57.3-11.3c-14,0.4-21.8-2.8-26-5.6c-0.9-2.2-2.2-3.6-4-3.7
	c-8.7-0.7-26.3-19.8-26.3-19.8c-2.2-8.3-6.5-16.1-14.2-19.8c-11.9-5.8-20.1-17.1-32.9-21.4c-1.3-0.4-2.3-1.9-3.3-2.9
	c-7.2-7.2-13.1-15.5-21.4-21.7c-7.4-5.5-14.6-11.1-21.7-16.8c-13.4-10.6-24.9-23.6-39.9-32.4c-0.8-0.5-1.6-1.3-1.9-2.2
	c-5.7-13.9-18.7-23.2-23.1-38.1c-2.4-8.1-10.3-13.4-15-20.4c-7.6-11.4-17.1-19.8-30.7-23.1c-4.7-1.1-7.1-4.3-7.9-9.2
	c-0.9-5.1-2.3-10-3.8-15c-1.3-4.3-4.4-6.6-8.8-7.9c-12.7-3.6-25.6-6.8-36.6-14.7c-3.6-2.6-8-4-12.2-5.7c-6.6-2.6-13.5-4.7-20.1-7.6
	c-16.2-7.1-33.1-10.8-50.5-13c-9.7-1.2-19.6-0.3-29.4-1.8c-9.4-1.4-18.9-0.6-28.3,0.8c-8.9,1.3-17.8,2.8-26.7,2.9
	c-10.9,0.1-18.4,4.7-23.5,13.9c-1.3,2.3-2.9,3.7-5.4,4.8c-24.6,10.3-48.4,22.3-72.3,33.9c-14,6.8-26.8,16.3-42.1,20.5
	c-9,2.5-12.8,9-14.1,17.5c-1,7-1.9,14-3.6,21c-2,8-6.2,11.9-13.6,13.9c-8.6,2.4-17,6-22.1,13.7c-12.4,19.1-30.4,32.9-46,49
	c-5.6,5.8-13.3,8.1-19.9,12.3c-16.3,10.6-29.1,25.3-43.8,37.8c-8.6,7.3-15.7,15.7-22.2,24.9c-3.4,4.8-7.7,8.8-12.6,12
	c-2.6,1.7-6,2.2-8.3,4.4c-5.8,5.5-12.8,9.2-20.1,11.8c-6.7,2.4-9.5,7.9-10.7,13.3c-0.9,4-2.9,5.8-5.4,7.7
	c-11,8.4-21.4,17.5-31.8,26.6c-3.1,2.7-5.8,5.9-7.4,9.8c-2.6,2-6.1,3.7-10.7,4.4c-14,2-73-1-78,7s-63,5-66,11s-87,59-103,59
	s-68-8-80-7s-39,24-48,24s-24,0-24,0V900h1440V704.2v-8v-18H1424z M1273.4,691.1l0.4,0l-0.4,3.2
	C1273.5,693.2,1273.5,692.2,1273.4,691.1z M447.8,705c0,0.1,0,0.2,0,0.3l-0.5,0C447.5,705.2,447.6,705.1,447.8,705z M1117,723.2
	c-10,8-27,25-50,26s-53,16-66,16s-103,15-133,14s-65,18-99,3s-43-43-63-43c-20,0-27-3.9-25.5-21.9c0.8-7.5,1.5-14.8,1.5-18.1
	c0-8-4-27-4-27v-14.7c3.3-6.8,6-13.9,8.5-21.1c10.5-29.7,27-55.5,49.5-77.6c1.8-1.8,3.2-3.9,3.9-6.3c1.3-4.6,3.9-8,7.7-10.7
	c3.5-2.5,6.8-6,6.1-10.3c-0.8-4.9,1.1-6.6,5-7.8c1.2-0.4,2.3-1.3,3.5-1.9c13.2-6.8,26.1-14.1,40.7-17.5c7.1-1.7,11.6-6.1,14.1-12.8
	c1.5-3.9,3.2-7.5,5.8-11c8.7-11.4,20-19.9,31.1-28.6c8.2-6.4,18.4-9.8,28-11.2c13.9-2,28.6-1.1,41.6,6.5c2.5,1.4,5.1,2.6,8,2.8
	c7.2,0.6,11.9,4.4,15.4,10.4c2.3,4,5.6,7.9,10.2,8.2c7.3,0.4,9.4,4.4,9.6,10.6c0.1,2,0.4,4,0.5,6c0.3,10.4,4.2,19.1,13.5,23.9
	c7.8,4,14.2,9.4,19.6,15.9c4,4.8,9.4,8.6,11.3,15c2.1,6.9,4.2,13.8,6.4,20.7h0c0,0,6.8,38,12.8,40s20.7,10,23.3,16
	c2.7,6,24,38,24,38s16.7,8,27.3,15.3c6.5,4.5,13.1,17,17.2,26C1122.5,696.3,1127,715.2,1117,723.2z"/>
</svg>
