<?xml version="1.0" encoding="utf-8"?>
<!-- Generator: Adobe Illustrator 18.0.0, SVG Export Plug-In . SVG Version: 6.00 Build 0)  -->
<!DOCTYPE svg PUBLIC "-//W3C//DTD SVG 1.1//EN" "http://www.w3.org/Graphics/SVG/1.1/DTD/svg11.dtd">
<svg version="1.1" id="Layer_1" xmlns="http://www.w3.org/2000/svg" xmlns:xlink="http://www.w3.org/1999/xlink" x="0px" y="0px"
	 viewBox="0 0 1440 900" enable-background="new 0 0 1440 900" xml:space="preserve">
<path fill="#4F9FB5" d="M1439,303.6c-11.2,0.5-22.4,1.6-33.5,4.3c-8.3,2-10.2,3.4-11.7,11.9c-0.2,0.8-0.3,1.7-0.5,2.5
	c-1.3,6.5-4.4,11.3-11.3,13.3c-6,1.7-11.1,5.3-15.9,9.2c-4.9,4.1-10.1,7.6-15.9,10.2c-4.7,2.1-6.4,5.8-6.7,10.6
	c-0.2,4,1,7.8,0.9,11.8c-0.1,4.4-1.6,7.9-5.9,9.3c-6.4,2.2-9.3,6.8-10.9,13.1c-1.6,6.2-4.7,11.9-10.5,15.3
	c-15.3,8.9-31.9,14.9-47.9,22.2c-2.6,1.2-5.6,1.6-8.4,2.2c-7.9,1.5-15.7,3.5-23.2,6.6c-4,1.6-7,3.9-9.2,7.7
	c-4.1,7.4-10.4,12.1-18.8,13.9c-5.2,1.2-10.3,2.6-15.5,3.7c-10.8,2.3-21.8,1.6-32.7,3.2c-22.6,3.3-44.8,8.5-66.9,13.8
	c-26.9,6.4-53.1,15.4-80.7,20.1c-30.1,5.1-59.8,13.4-90.6,14.4c-4.4,0.1-9,1.2-11.5,5.6c-6.8,12.2-15.3,23.7-18.6,37.6
	c-1.6,6.8-5.1,12.6-7.8,18.8c-3.7,8.6-9.2,11.6-18,12.8c-13.4,1.8-26,7.3-39.4,9.5c-7.9,1.3-13.4,5.2-17.5,12
	c-4.4,7.4-10.8,12.7-19,15.8c-3.9,1.4-7.4,3.6-10.7,6.1c-6.7,5.3-13.7,10.4-21.1,14.5c-4.6,2.6-8.3,5.8-11.4,10.1
	c-2.9,4.1-6.4,7.8-10.8,10.1c-6.9,3.6-14,8.5-22.1,6.7c-11.2-2.4-22-2-33.1-0.1c-9.4,1.6-19.1,4.5-28.4,0.9
	c-11.4-4.4-21.7-2.3-32.2,2.4c-7.3,3.3-14.4,7.1-22.4,8.8c-29.1,6.2-58.5,11.2-87.7,17c-20.3,4-41,5.6-61.7,7.1
	c-9.5,0.7-18.9,0.8-26.3-6.8c-1.5-1.6-3.7-2.6-5.7-3.5c-8.3-3.6-15-10.4-24.3-12c-8.1-1.4-16-3.6-23.8-6.3c-8.7-3-17.4-3.3-26.1,0.4
	c-3.1,1.4-6.5,2.3-10,2.4c-12.9,0.4-25.7,1.7-38.6,2.1h-26.9c0,0-15.6-5.3-24.5,0c-8.9,5.3-44.6,62.8-59.5,70.7
	c-14.9,7.9-41.6,24.8-56.5,41.6s-39.6,30.7-76.3,38.7C32.2,850.3,13.4,854.2,0,857v43h1439V303.6z"/>
</svg>
