<?xml version="1.0" encoding="utf-8"?>
<!-- Generator: Adobe Illustrator 18.0.0, SVG Export Plug-In . SVG Version: 6.00 Build 0)  -->
<!DOCTYPE svg PUBLIC "-//W3C//DTD SVG 1.1//EN" "http://www.w3.org/Graphics/SVG/1.1/DTD/svg11.dtd">
<svg version="1.1" id="Layer_1" xmlns="http://www.w3.org/2000/svg" xmlns:xlink="http://www.w3.org/1999/xlink" x="0px" y="0px"
	 viewBox="0 0 1534 900" enable-background="new 0 0 1534 900" xml:space="preserve">
<g>
	<g>
		<rect x="274.5" y="696" fill="#9EC9DB" width="986" height="176.7"/>
		<path fill="#5A95AA" d="M1262,874.2H272.9V694.5H1262V874.2z M276,871.2h983V697.6H276V871.2z"/>
	</g>
	<g>
		<rect x="274.5" y="714" fill="#AE8F3A" width="986" height="9.4"/>
		<path fill="#7B9BA5" d="M1262,724.9H272.9v-12.4H1262V724.9z M276,721.8h983v-6.3H276V721.8z"/>
	</g>
	<g>
		<rect x="274.5" y="788.4" fill="#AE8F3A" width="986" height="9.4"/>
		<path fill="#7B9BA5" d="M1262,799.3H272.9v-12.4H1262V799.3z M276,796.3h983V790H276V796.3z"/>
	</g>
	<g>
		<g id="windows_2_">
			<g>
				<path fill="#7B9BA5" d="M1242.6,789.4h-46v-24.3c0-12.7,10.3-23,23-23c12.7,0,23,10.3,23,23V789.4z M1199.6,786.3h39.9v-21.2
					c0-11-9-20-20-20s-20,9-20,20V786.3z"/>
			</g>
			<g>
				<path fill="#1688B0" d="M1219.6,748.4c-8.7,0-15.8,7.1-15.8,15.8v23.7h31.5v-23.7C1235.4,755.5,1228.3,748.4,1219.6,748.4z"/>
				<path fill="#7B9BA5" d="M1236.9,789.4h-34.6v-25.2c0-9.5,7.8-17.3,17.3-17.3c9.5,0,17.3,7.8,17.3,17.3V789.4z M1205.4,786.3
					h28.5v-22.1c0-7.9-6.4-14.2-14.2-14.2c-7.9,0-14.2,6.4-14.2,14.2V786.3z"/>
			</g>
			<g>
				<g>
					<ellipse fill="#AE8F3A" cx="1219.6" cy="750.6" rx="6.9" ry="9.2"/>
					<path fill="#7B9BA5" d="M1219.6,761.3c-4.6,0-8.4-4.8-8.4-10.7s3.8-10.7,8.4-10.7c4.6,0,8.4,4.8,8.4,10.7
						S1224.2,761.3,1219.6,761.3z M1219.6,743c-2.9,0-5.3,3.5-5.3,7.6c0,4.1,2.4,7.6,5.3,7.6c2.9,0,5.3-3.5,5.3-7.6
						C1225,746.5,1222.5,743,1219.6,743z"/>
				</g>
				<g>
					<circle fill="#FFFFFF" cx="1219.6" cy="745.7" r="2.7"/>
				</g>
			</g>
			<g>
				<path fill="#7B9BA5" d="M1242.6,874.2h-46v-37.4c0-12.7,10.3-23,23-23c12.7,0,23,10.3,23,23V874.2z M1199.6,871.2h39.9v-34.4
					c0-11-9-20-20-20s-20,9-20,20V871.2z"/>
			</g>
			<g>
				<path fill="#1688B0" d="M1219.6,819.7c-8.7,0-15.8,7.1-15.8,15.8v37.2h31.5v-37.2C1235.4,826.8,1228.3,819.7,1219.6,819.7z"/>
				<path fill="#7B9BA5" d="M1236.9,874.2h-34.6v-38.7c0-9.5,7.8-17.3,17.3-17.3c9.5,0,17.3,7.8,17.3,17.3V874.2z M1205.4,871.2
					h28.5v-35.7c0-7.9-6.4-14.2-14.2-14.2c-7.9,0-14.2,6.4-14.2,14.2V871.2z"/>
			</g>
			<g>
				<g>
					<ellipse fill="#AE8F3A" cx="1219.6" cy="822" rx="6.9" ry="9.2"/>
					<path fill="#7B9BA5" d="M1219.6,832.7c-4.6,0-8.4-4.8-8.4-10.7s3.8-10.7,8.4-10.7c4.6,0,8.4,4.8,8.4,10.7
						S1224.2,832.7,1219.6,832.7z M1219.6,814.4c-2.9,0-5.3,3.5-5.3,7.6c0,4.1,2.4,7.6,5.3,7.6c2.9,0,5.3-3.5,5.3-7.6
						C1225,817.9,1222.5,814.4,1219.6,814.4z"/>
				</g>
				<g>
					<circle fill="#FFFFFF" cx="1219.6" cy="817.1" r="2.7"/>
				</g>
			</g>
		</g>
		<g id="windows_3_">
			<g>
				<path fill="#7B9BA5" d="M1181.6,789.4h-46v-24.3c0-12.7,10.3-23,23-23c12.7,0,23,10.3,23,23V789.4z M1138.6,786.3h39.9v-21.2
					c0-11-9-20-20-20s-20,9-20,20V786.3z"/>
			</g>
			<g>
				<path fill="#1688B0" d="M1158.6,748.4c-8.7,0-15.8,7.1-15.8,15.8v23.7h31.5v-23.7C1174.3,755.5,1167.3,748.4,1158.6,748.4z"/>
				<path fill="#7B9BA5" d="M1175.9,789.4h-34.6v-25.2c0-9.5,7.8-17.3,17.3-17.3c9.5,0,17.3,7.8,17.3,17.3V789.4z M1144.3,786.3
					h28.5v-22.1c0-7.9-6.4-14.2-14.2-14.2c-7.9,0-14.2,6.4-14.2,14.2V786.3z"/>
			</g>
			<g>
				<g>
					<ellipse fill="#AE8F3A" cx="1158.6" cy="750.6" rx="6.9" ry="9.2"/>
					<path fill="#7B9BA5" d="M1158.6,761.3c-4.6,0-8.4-4.8-8.4-10.7s3.8-10.7,8.4-10.7c4.6,0,8.4,4.8,8.4,10.7
						S1163.2,761.3,1158.6,761.3z M1158.6,743c-2.9,0-5.3,3.5-5.3,7.6c0,4.1,2.4,7.6,5.3,7.6c2.9,0,5.3-3.5,5.3-7.6
						C1163.9,746.5,1161.5,743,1158.6,743z"/>
				</g>
				<g>
					<circle fill="#FFFFFF" cx="1158.6" cy="745.7" r="2.7"/>
				</g>
			</g>
			<g>
				<path fill="#7B9BA5" d="M1181.6,874.2h-46v-37.4c0-12.7,10.3-23,23-23c12.7,0,23,10.3,23,23V874.2z M1138.6,871.2h39.9v-34.4
					c0-11-9-20-20-20s-20,9-20,20V871.2z"/>
			</g>
			<g>
				<path fill="#1688B0" d="M1158.6,819.7c-8.7,0-15.8,7.1-15.8,15.8v37.2h31.5v-37.2C1174.3,826.8,1167.3,819.7,1158.6,819.7z"/>
				<path fill="#7B9BA5" d="M1175.9,874.2h-34.6v-38.7c0-9.5,7.8-17.3,17.3-17.3c9.5,0,17.3,7.8,17.3,17.3V874.2z M1144.3,871.2
					h28.5v-35.7c0-7.9-6.4-14.2-14.2-14.2c-7.9,0-14.2,6.4-14.2,14.2V871.2z"/>
			</g>
			<g>
				<g>
					<ellipse fill="#AE8F3A" cx="1158.6" cy="822" rx="6.9" ry="9.2"/>
					<path fill="#7B9BA5" d="M1158.6,832.7c-4.6,0-8.4-4.8-8.4-10.7s3.8-10.7,8.4-10.7c4.6,0,8.4,4.8,8.4,10.7
						S1163.2,832.7,1158.6,832.7z M1158.6,814.4c-2.9,0-5.3,3.5-5.3,7.6c0,4.1,2.4,7.6,5.3,7.6c2.9,0,5.3-3.5,5.3-7.6
						C1163.9,817.9,1161.5,814.4,1158.6,814.4z"/>
				</g>
				<g>
					<circle fill="#FFFFFF" cx="1158.6" cy="817.1" r="2.7"/>
				</g>
			</g>
		</g>
		<g id="windows_4_">
			<g>
				<path fill="#7B9BA5" d="M1120.5,789.4h-46v-24.3c0-12.7,10.3-23,23-23s23,10.3,23,23V789.4z M1077.5,786.3h39.9v-21.2
					c0-11-9-20-20-20s-20,9-20,20V786.3z"/>
			</g>
			<g>
				<path fill="#1688B0" d="M1097.5,748.4c-8.7,0-15.8,7.1-15.8,15.8v23.7h31.5v-23.7C1113.3,755.5,1106.2,748.4,1097.5,748.4z"/>
				<path fill="#7B9BA5" d="M1114.8,789.4h-34.6v-25.2c0-9.5,7.8-17.3,17.3-17.3s17.3,7.8,17.3,17.3V789.4z M1083.3,786.3h28.5
					v-22.1c0-7.9-6.4-14.2-14.2-14.2s-14.2,6.4-14.2,14.2V786.3z"/>
			</g>
			<g>
				<g>
					<ellipse fill="#AE8F3A" cx="1097.5" cy="750.6" rx="6.9" ry="9.2"/>
					<path fill="#7B9BA5" d="M1097.5,761.3c-4.6,0-8.4-4.8-8.4-10.7s3.8-10.7,8.4-10.7s8.4,4.8,8.4,10.7S1102.1,761.3,1097.5,761.3z
						 M1097.5,743c-2.9,0-5.3,3.5-5.3,7.6c0,4.1,2.4,7.6,5.3,7.6s5.3-3.5,5.3-7.6C1102.8,746.5,1100.4,743,1097.5,743z"/>
				</g>
				<g>
					<circle fill="#FFFFFF" cx="1097.5" cy="745.7" r="2.7"/>
				</g>
			</g>
			<g>
				<path fill="#7B9BA5" d="M1120.5,874.2h-46v-37.4c0-12.7,10.3-23,23-23s23,10.3,23,23V874.2z M1077.5,871.2h39.9v-34.4
					c0-11-9-20-20-20s-20,9-20,20V871.2z"/>
			</g>
			<g>
				<path fill="#1688B0" d="M1097.5,819.7c-8.7,0-15.8,7.1-15.8,15.8v37.2h31.5v-37.2C1113.3,826.8,1106.2,819.7,1097.5,819.7z"/>
				<path fill="#7B9BA5" d="M1114.8,874.2h-34.6v-38.7c0-9.5,7.8-17.3,17.3-17.3s17.3,7.8,17.3,17.3V874.2z M1083.3,871.2h28.5
					v-35.7c0-7.9-6.4-14.2-14.2-14.2s-14.2,6.4-14.2,14.2V871.2z"/>
			</g>
			<g>
				<g>
					<ellipse fill="#AE8F3A" cx="1097.5" cy="822" rx="6.9" ry="9.2"/>
					<path fill="#7B9BA5" d="M1097.5,832.7c-4.6,0-8.4-4.8-8.4-10.7s3.8-10.7,8.4-10.7s8.4,4.8,8.4,10.7S1102.1,832.7,1097.5,832.7z
						 M1097.5,814.4c-2.9,0-5.3,3.5-5.3,7.6c0,4.1,2.4,7.6,5.3,7.6s5.3-3.5,5.3-7.6C1102.8,817.9,1100.4,814.4,1097.5,814.4z"/>
				</g>
				<g>
					<circle fill="#FFFFFF" cx="1097.5" cy="817.1" r="2.7"/>
				</g>
			</g>
		</g>
		<g id="windows_5_">
			<g>
				<path fill="#7B9BA5" d="M1059.5,789.4h-46v-24.3c0-12.7,10.3-23,23-23c12.7,0,23,10.3,23,23V789.4z M1016.5,786.3h39.9v-21.2
					c0-11-9-20-20-20s-20,9-20,20V786.3z"/>
			</g>
			<g>
				<path fill="#1688B0" d="M1036.4,748.4c-8.7,0-15.8,7.1-15.8,15.8v23.7h31.5v-23.7C1052.2,755.5,1045.2,748.4,1036.4,748.4z"/>
				<path fill="#7B9BA5" d="M1053.7,789.4h-34.6v-25.2c0-9.5,7.8-17.3,17.3-17.3c9.5,0,17.3,7.8,17.3,17.3V789.4z M1022.2,786.3
					h28.5v-22.1c0-7.9-6.4-14.2-14.2-14.2c-7.9,0-14.2,6.4-14.2,14.2V786.3z"/>
			</g>
			<g>
				<g>
					<ellipse fill="#AE8F3A" cx="1036.4" cy="750.6" rx="6.9" ry="9.2"/>
					<path fill="#7B9BA5" d="M1036.4,761.3c-4.6,0-8.4-4.8-8.4-10.7s3.8-10.7,8.4-10.7s8.4,4.8,8.4,10.7S1041.1,761.3,1036.4,761.3z
						 M1036.4,743c-2.9,0-5.3,3.5-5.3,7.6c0,4.1,2.4,7.6,5.3,7.6c2.9,0,5.3-3.5,5.3-7.6C1041.8,746.5,1039.3,743,1036.4,743z"/>
				</g>
				<g>
					<circle fill="#FFFFFF" cx="1036.4" cy="745.7" r="2.7"/>
				</g>
			</g>
			<g>
				<path fill="#7B9BA5" d="M1059.5,874.2h-46v-37.4c0-12.7,10.3-23,23-23c12.7,0,23,10.3,23,23V874.2z M1016.5,871.2h39.9v-34.4
					c0-11-9-20-20-20s-20,9-20,20V871.2z"/>
			</g>
			<g>
				<path fill="#1688B0" d="M1036.4,819.7c-8.7,0-15.8,7.1-15.8,15.8v37.2h31.5v-37.2C1052.2,826.8,1045.2,819.7,1036.4,819.7z"/>
				<path fill="#7B9BA5" d="M1053.7,874.2h-34.6v-38.7c0-9.5,7.8-17.3,17.3-17.3c9.5,0,17.3,7.8,17.3,17.3V874.2z M1022.2,871.2
					h28.5v-35.7c0-7.9-6.4-14.2-14.2-14.2c-7.9,0-14.2,6.4-14.2,14.2V871.2z"/>
			</g>
			<g>
				<g>
					<ellipse fill="#AE8F3A" cx="1036.4" cy="822" rx="6.9" ry="9.2"/>
					<path fill="#7B9BA5" d="M1036.4,832.7c-4.6,0-8.4-4.8-8.4-10.7s3.8-10.7,8.4-10.7s8.4,4.8,8.4,10.7S1041.1,832.7,1036.4,832.7z
						 M1036.4,814.4c-2.9,0-5.3,3.5-5.3,7.6c0,4.1,2.4,7.6,5.3,7.6c2.9,0,5.3-3.5,5.3-7.6C1041.8,817.9,1039.3,814.4,1036.4,814.4z"
						/>
				</g>
				<g>
					<circle fill="#FFFFFF" cx="1036.4" cy="817.1" r="2.7"/>
				</g>
			</g>
		</g>
	</g>
	<g>
		<g id="windows_9_">
			<g>
				<path fill="#7B9BA5" d="M338.4,789.4h-46v-24.3c0-12.7,10.3-23,23-23s23,10.3,23,23V789.4z M295.4,786.3h39.9v-21.2
					c0-11-9-20-20-20s-20,9-20,20V786.3z"/>
			</g>
			<g>
				<path fill="#1688B0" d="M315.4,748.4c8.7,0,15.8,7.1,15.8,15.8v23.7h-31.5v-23.7C299.6,755.5,306.7,748.4,315.4,748.4z"/>
				<path fill="#7B9BA5" d="M332.7,789.4h-34.6v-25.2c0-9.5,7.8-17.3,17.3-17.3s17.3,7.8,17.3,17.3V789.4z M301.1,786.3h28.5v-22.1
					c0-7.9-6.4-14.2-14.2-14.2c-7.9,0-14.2,6.4-14.2,14.2V786.3z"/>
			</g>
			<g>
				<g>
					<ellipse fill="#AE8F3A" cx="315.4" cy="750.6" rx="6.9" ry="9.2"/>
					<path fill="#7B9BA5" d="M315.4,761.3c-4.6,0-8.4-4.8-8.4-10.7s3.8-10.7,8.4-10.7c4.6,0,8.4,4.8,8.4,10.7S320,761.3,315.4,761.3
						z M315.4,743c-2.9,0-5.3,3.5-5.3,7.6c0,4.1,2.4,7.6,5.3,7.6c2.9,0,5.3-3.5,5.3-7.6C320.7,746.5,318.3,743,315.4,743z"/>
				</g>
				<g>
					<circle fill="#FFFFFF" cx="315.4" cy="745.7" r="2.7"/>
				</g>
			</g>
			<g>
				<path fill="#7B9BA5" d="M338.4,874.2h-46v-37.4c0-12.7,10.3-23,23-23s23,10.3,23,23V874.2z M295.4,871.2h39.9v-34.4
					c0-11-9-20-20-20s-20,9-20,20V871.2z"/>
			</g>
			<g>
				<path fill="#1688B0" d="M315.4,819.7c8.7,0,15.8,7.1,15.8,15.8v37.2h-31.5v-37.2C299.6,826.8,306.7,819.7,315.4,819.7z"/>
				<path fill="#7B9BA5" d="M332.7,874.2h-34.6v-38.7c0-9.5,7.8-17.3,17.3-17.3s17.3,7.8,17.3,17.3V874.2z M301.1,871.2h28.5v-35.7
					c0-7.9-6.4-14.2-14.2-14.2c-7.9,0-14.2,6.4-14.2,14.2V871.2z"/>
			</g>
			<g>
				<g>
					<ellipse fill="#AE8F3A" cx="315.4" cy="822" rx="6.9" ry="9.2"/>
					<path fill="#7B9BA5" d="M315.4,832.7c-4.6,0-8.4-4.8-8.4-10.7s3.8-10.7,8.4-10.7c4.6,0,8.4,4.8,8.4,10.7S320,832.7,315.4,832.7
						z M315.4,814.4c-2.9,0-5.3,3.5-5.3,7.6c0,4.1,2.4,7.6,5.3,7.6c2.9,0,5.3-3.5,5.3-7.6C320.7,817.9,318.3,814.4,315.4,814.4z"/>
				</g>
				<g>
					<circle fill="#FFFFFF" cx="315.4" cy="817.1" r="2.7"/>
				</g>
			</g>
		</g>
		<g id="windows_8_">
			<g>
				<path fill="#7B9BA5" d="M399.4,789.4h-46v-24.3c0-12.7,10.3-23,23-23s23,10.3,23,23V789.4z M356.5,786.3h39.9v-21.2
					c0-11-9-20-20-20c-11,0-20,9-20,20V786.3z"/>
			</g>
			<g>
				<path fill="#1688B0" d="M376.4,748.4c8.7,0,15.8,7.1,15.8,15.8v23.7h-31.5v-23.7C360.7,755.5,367.7,748.4,376.4,748.4z"/>
				<path fill="#7B9BA5" d="M393.7,789.4h-34.6v-25.2c0-9.5,7.8-17.3,17.3-17.3s17.3,7.8,17.3,17.3V789.4z M362.2,786.3h28.5v-22.1
					c0-7.9-6.4-14.2-14.2-14.2c-7.9,0-14.2,6.4-14.2,14.2V786.3z"/>
			</g>
			<g>
				<g>
					<ellipse fill="#AE8F3A" cx="376.4" cy="750.6" rx="6.9" ry="9.2"/>
					<path fill="#7B9BA5" d="M376.4,761.3c-4.6,0-8.4-4.8-8.4-10.7s3.8-10.7,8.4-10.7c4.6,0,8.4,4.8,8.4,10.7
						S381.1,761.3,376.4,761.3z M376.4,743c-2.9,0-5.3,3.5-5.3,7.6c0,4.1,2.4,7.6,5.3,7.6c2.9,0,5.3-3.5,5.3-7.6
						C381.8,746.5,379.3,743,376.4,743z"/>
				</g>
				<g>
					<circle fill="#FFFFFF" cx="376.4" cy="745.7" r="2.7"/>
				</g>
			</g>
			<g>
				<path fill="#7B9BA5" d="M399.4,874.2h-46v-37.4c0-12.7,10.3-23,23-23s23,10.3,23,23V874.2z M356.5,871.2h39.9v-34.4
					c0-11-9-20-20-20c-11,0-20,9-20,20V871.2z"/>
			</g>
			<g>
				<path fill="#1688B0" d="M376.4,819.7c8.7,0,15.8,7.1,15.8,15.8v37.2h-31.5v-37.2C360.7,826.8,367.7,819.7,376.4,819.7z"/>
				<path fill="#7B9BA5" d="M393.7,874.2h-34.6v-38.7c0-9.5,7.8-17.3,17.3-17.3s17.3,7.8,17.3,17.3V874.2z M362.2,871.2h28.5v-35.7
					c0-7.9-6.4-14.2-14.2-14.2c-7.9,0-14.2,6.4-14.2,14.2V871.2z"/>
			</g>
			<g>
				<g>
					<ellipse fill="#AE8F3A" cx="376.4" cy="822" rx="6.9" ry="9.2"/>
					<path fill="#7B9BA5" d="M376.4,832.7c-4.6,0-8.4-4.8-8.4-10.7s3.8-10.7,8.4-10.7c4.6,0,8.4,4.8,8.4,10.7
						S381.1,832.7,376.4,832.7z M376.4,814.4c-2.9,0-5.3,3.5-5.3,7.6c0,4.1,2.4,7.6,5.3,7.6c2.9,0,5.3-3.5,5.3-7.6
						C381.8,817.9,379.3,814.4,376.4,814.4z"/>
				</g>
				<g>
					<circle fill="#FFFFFF" cx="376.4" cy="817.1" r="2.7"/>
				</g>
			</g>
		</g>
		<g id="windows_7_">
			<g>
				<path fill="#7B9BA5" d="M460.5,789.4h-46v-24.3c0-12.7,10.3-23,23-23s23,10.3,23,23V789.4z M417.5,786.3h39.9v-21.2
					c0-11-9-20-20-20c-11,0-20,9-20,20V786.3z"/>
			</g>
			<g>
				<path fill="#1688B0" d="M437.5,748.4c8.7,0,15.8,7.1,15.8,15.8v23.7h-31.5v-23.7C421.7,755.5,428.8,748.4,437.5,748.4z"/>
				<path fill="#7B9BA5" d="M454.8,789.4h-34.6v-25.2c0-9.5,7.8-17.3,17.3-17.3c9.5,0,17.3,7.8,17.3,17.3V789.4z M423.2,786.3h28.5
					v-22.1c0-7.9-6.4-14.2-14.2-14.2c-7.9,0-14.2,6.4-14.2,14.2V786.3z"/>
			</g>
			<g>
				<g>
					<ellipse fill="#AE8F3A" cx="437.5" cy="750.6" rx="6.9" ry="9.2"/>
					<path fill="#7B9BA5" d="M437.5,761.3c-4.6,0-8.4-4.8-8.4-10.7s3.8-10.7,8.4-10.7c4.6,0,8.4,4.8,8.4,10.7
						S442.1,761.3,437.5,761.3z M437.5,743c-2.9,0-5.3,3.5-5.3,7.6c0,4.1,2.4,7.6,5.3,7.6c2.9,0,5.3-3.5,5.3-7.6
						C442.8,746.5,440.4,743,437.5,743z"/>
				</g>
				<g>
					<circle fill="#FFFFFF" cx="437.5" cy="745.7" r="2.7"/>
				</g>
			</g>
			<g>
				<path fill="#7B9BA5" d="M460.5,874.2h-46v-37.4c0-12.7,10.3-23,23-23s23,10.3,23,23V874.2z M417.5,871.2h39.9v-34.4
					c0-11-9-20-20-20c-11,0-20,9-20,20V871.2z"/>
			</g>
			<g>
				<path fill="#1688B0" d="M437.5,819.7c8.7,0,15.8,7.1,15.8,15.8v37.2h-31.5v-37.2C421.7,826.8,428.8,819.7,437.5,819.7z"/>
				<path fill="#7B9BA5" d="M454.8,874.2h-34.6v-38.7c0-9.5,7.8-17.3,17.3-17.3c9.5,0,17.3,7.8,17.3,17.3V874.2z M423.2,871.2h28.5
					v-35.7c0-7.9-6.4-14.2-14.2-14.2c-7.9,0-14.2,6.4-14.2,14.2V871.2z"/>
			</g>
			<g>
				<g>
					<ellipse fill="#AE8F3A" cx="437.5" cy="822" rx="6.9" ry="9.2"/>
					<path fill="#7B9BA5" d="M437.5,832.7c-4.6,0-8.4-4.8-8.4-10.7s3.8-10.7,8.4-10.7c4.6,0,8.4,4.8,8.4,10.7
						S442.1,832.7,437.5,832.7z M437.5,814.4c-2.9,0-5.3,3.5-5.3,7.6c0,4.1,2.4,7.6,5.3,7.6c2.9,0,5.3-3.5,5.3-7.6
						C442.8,817.9,440.4,814.4,437.5,814.4z"/>
				</g>
				<g>
					<circle fill="#FFFFFF" cx="437.5" cy="817.1" r="2.7"/>
				</g>
			</g>
		</g>
		<g id="windows_6_">
			<g>
				<path fill="#7B9BA5" d="M521.5,789.4h-46v-24.3c0-12.7,10.3-23,23-23s23,10.3,23,23V789.4z M478.6,786.3h39.9v-21.2
					c0-11-9-20-20-20c-11,0-20,9-20,20V786.3z"/>
			</g>
			<g>
				<path fill="#1688B0" d="M498.5,748.4c8.7,0,15.8,7.1,15.8,15.8v23.7h-31.5v-23.7C482.8,755.5,489.8,748.4,498.5,748.4z"/>
				<path fill="#7B9BA5" d="M515.8,789.4h-34.6v-25.2c0-9.5,7.8-17.3,17.3-17.3c9.5,0,17.3,7.8,17.3,17.3V789.4z M484.3,786.3h28.5
					v-22.1c0-7.9-6.4-14.2-14.2-14.2c-7.9,0-14.2,6.4-14.2,14.2V786.3z"/>
			</g>
			<g>
				<g>
					<ellipse fill="#AE8F3A" cx="498.5" cy="750.6" rx="6.9" ry="9.2"/>
					<path fill="#7B9BA5" d="M498.5,761.3c-4.6,0-8.4-4.8-8.4-10.7s3.8-10.7,8.4-10.7c4.6,0,8.4,4.8,8.4,10.7
						S503.2,761.3,498.5,761.3z M498.5,743c-2.9,0-5.3,3.5-5.3,7.6c0,4.1,2.4,7.6,5.3,7.6c2.9,0,5.3-3.5,5.3-7.6
						C503.9,746.5,501.4,743,498.5,743z"/>
				</g>
				<g>
					<circle fill="#FFFFFF" cx="498.5" cy="745.7" r="2.7"/>
				</g>
			</g>
			<g>
				<path fill="#7B9BA5" d="M521.5,874.2h-46v-37.4c0-12.7,10.3-23,23-23s23,10.3,23,23V874.2z M478.6,871.2h39.9v-34.4
					c0-11-9-20-20-20c-11,0-20,9-20,20V871.2z"/>
			</g>
			<g>
				<path fill="#1688B0" d="M498.5,819.7c8.7,0,15.8,7.1,15.8,15.8v37.2h-31.5v-37.2C482.8,826.8,489.8,819.7,498.5,819.7z"/>
				<path fill="#7B9BA5" d="M515.8,874.2h-34.6v-38.7c0-9.5,7.8-17.3,17.3-17.3c9.5,0,17.3,7.8,17.3,17.3V874.2z M484.3,871.2h28.5
					v-35.7c0-7.9-6.4-14.2-14.2-14.2c-7.9,0-14.2,6.4-14.2,14.2V871.2z"/>
			</g>
			<g>
				<g>
					<ellipse fill="#AE8F3A" cx="498.5" cy="822" rx="6.9" ry="9.2"/>
					<path fill="#7B9BA5" d="M498.5,832.7c-4.6,0-8.4-4.8-8.4-10.7s3.8-10.7,8.4-10.7c4.6,0,8.4,4.8,8.4,10.7
						S503.2,832.7,498.5,832.7z M498.5,814.4c-2.9,0-5.3,3.5-5.3,7.6c0,4.1,2.4,7.6,5.3,7.6c2.9,0,5.3-3.5,5.3-7.6
						C503.9,817.9,501.4,814.4,498.5,814.4z"/>
				</g>
				<g>
					<circle fill="#FFFFFF" cx="498.5" cy="817.1" r="2.7"/>
				</g>
			</g>
		</g>
	</g>
	<g>
		<g>
			<polygon fill="#A5C7D8" points="1290.6,872.7 1260.5,872.7 1260.5,696 1290.6,682 			"/>
			<path fill="#7B9AA4" d="M1292.2,874.2H1259V695.1l33.2-15.5V874.2z M1262,871.2h27.1V684.4L1262,697V871.2z"/>
		</g>
		<g>
			<polygon fill="#AE8F3A" points="1290.6,711.4 1260.5,723.3 1260.5,714 1290.6,701.3 			"/>
			<path fill="#7B9BA5" d="M1259,725.6V713l33.2-13.9v13.5L1259,725.6z M1262,715v6.1l27.1-10.7v-6.8L1262,715z"/>
		</g>
		<g>
			<polygon fill="#AE8F3A" points="1290.6,787.5 1260.5,799.4 1260.5,790.1 1290.6,777.4 			"/>
			<path fill="#7B9BA5" d="M1259,801.7v-12.6l33.2-13.9v13.5L1259,801.7z M1262,791.1v6.1l27.1-10.7v-6.8L1262,791.1z"/>
		</g>
		<g>
			<rect x="1290.6" y="682" fill="#B6D7E2" width="193.5" height="190.7"/>
			<path fill="#7B9AA4" d="M1485.6,874.2h-196.5V680.4h196.5V874.2z M1292.2,871.2h190.4V683.5h-190.4V871.2z"/>
		</g>
		<g>
			<g>
				<polygon fill="#AE8F3A" points="1387.4,653.6 1267,699.4 1387.4,699.4 1507.7,699.4 				"/>
				<path fill="#7B9BA5" d="M1507.7,700.9H1267l-0.5-3l120.9-46.1l120.9,46.1L1507.7,700.9z M1275.3,697.9h224.1l-112.1-42.7
					L1275.3,697.9z"/>
			</g>
			<g>
				<path fill="#AE8F3A" stroke="#7B9BA5" stroke-width="2" d="M1507.7,699.4"/>
			</g>
			<g>
				<polygon fill="#D8F0FB" points="1387,661.2 1287,699.4 1387,699.4 1486.9,699.4 				"/>
				<path fill="#7B9BA5" d="M1486.9,700.9H1287l-0.5-3l100.5-38.4l100.5,38.4L1486.9,700.9z M1295.3,697.9h183.4l-91.7-35.1
					L1295.3,697.9z"/>
			</g>
			<g>
				<g>
					<polygon fill="#AE8F3A" points="1386.6,649.2 1386.1,649.2 1377.2,649.2 1381.5,667.3 1385.9,667.3 1386.8,667.3 1391.3,667.3 
						1395.5,649.2 					"/>
					<path fill="#7B9BA5" d="M1392.5,668.8h-12.2l-5-21.1h22.1L1392.5,668.8z M1382.7,665.8h7.4l3.5-15h-14.4L1382.7,665.8z"/>
				</g>
				<g>
					<polyline fill="#FFFFFF" points="1377.8,649.3 1395,649.3 1393.3,653.1 1379.4,653.1 					"/>
				</g>
				<g>
					<polygon fill="#FFFFFF" points="1378.5,658.3 1304,691.9 1378.8,661.9 					"/>
				</g>
				<g>
					<polygon fill="#FFFFFF" points="1394.3,658.3 1468.8,691.9 1394,661.9 					"/>
				</g>
			</g>
			<g>
				<g id="seashell_1_">
					<g>
						<path fill="#8B6828" d="M1386.8,688.6c0,0,7.2-9,9.3-3.4C1398.2,690.8,1386.8,688.6,1386.8,688.6z"/>
					</g>
					<g>
						<path fill="#9E7A2D" d="M1386.4,689.7c0,0,0.6-14.7,6.9-10.5C1399.6,683.3,1386.4,689.7,1386.4,689.7z"/>
					</g>
					<g>
						<path fill="#8B6828" d="M1385.9,688.6c0,0-7.2-9-9.3-3.4C1374.6,690.8,1385.9,688.6,1385.9,688.6z"/>
					</g>
					<g>
						<path fill="#9E7A2D" d="M1386.4,689.7c0,0-0.6-14.7-6.9-10.5C1373.1,683.3,1386.4,689.7,1386.4,689.7z"/>
					</g>
					<g>
						<path fill="#AE8F3A" d="M1386.4,689.5c0,0-9.2-15.2,0-15.2C1395.6,674.3,1386.4,689.5,1386.4,689.5z"/>
					</g>
					<g>
						<path fill="#8B6828" d="M1386.8,688.5L1386.8,688.5c0,0-0.1,0-0.4,0c-0.2,0-0.4,0-0.4,0v0c-1.3,0.1-3.8,0.5-3.8,2.8
							c2.1,0,3.2,0,3.8,0c0.7,0,0.7,0,0.7,0c0.6,0,1.7,0,3.8,0C1390.6,689,1388.1,688.6,1386.8,688.5z"/>
					</g>
				</g>
				<g>
					<ellipse fill="#FFFFFF" cx="1386.4" cy="677.1" rx="2.2" ry="1.4"/>
				</g>
				<g>
					<ellipse fill="#FFFFFF" cx="1386.4" cy="689.8" rx="1.5" ry="0.8"/>
				</g>
			</g>
		</g>
		<g>
			<g>
				<rect x="1290.6" y="777.4" fill="#AE8F3A" width="193.5" height="11"/>
				<path fill="#7B9BA5" d="M1485.6,790h-196.5v-14.1h196.5V790z M1292.2,786.9h190.4v-8h-190.4V786.9z"/>
			</g>
			<g>
				<rect x="1290.6" y="701.3" fill="#AE8F3A" width="193.5" height="11"/>
				<path fill="#7B9BA5" d="M1485.6,713.9h-196.5v-14.1h196.5V713.9z M1292.2,710.8h190.4v-8h-190.4V710.8z"/>
			</g>
		</g>
		<g id="windows">
			<g>
				<path fill="#7B9BA5" d="M1453.7,779.1h-46v-24.3c0-12.7,10.3-23,23-23c12.7,0,23,10.3,23,23V779.1z M1410.7,776h39.9v-21.2
					c0-11-9-20-20-20c-11,0-20,9-20,20V776z"/>
			</g>
			<g>
				<path fill="#7B9BA5" d="M1365.3,779.1h-46v-24.3c0-12.7,10.3-23,23-23c12.7,0,23,10.3,23,23V779.1z M1322.3,776h39.9v-21.2
					c0-11-9-20-20-20c-11,0-20,9-20,20V776z"/>
			</g>
			<g>
				<path fill="#1688B0" d="M1342.2,738.1c-8.7,0-15.8,7.1-15.8,15.8v21.9h31.5v-21.9C1358,745.2,1350.9,738.1,1342.2,738.1z"/>
				<path fill="#7B9BA5" d="M1359.5,777.3h-34.6v-23.4c0-9.5,7.8-17.3,17.3-17.3c9.5,0,17.3,7.8,17.3,17.3V777.3z M1328,774.3h28.5
					v-20.4c0-7.9-6.4-14.2-14.2-14.2c-7.9,0-14.2,6.4-14.2,14.2V774.3z"/>
			</g>
			<g>
				<path fill="#1688B0" d="M1430.6,738.1c-8.7,0-15.8,7.1-15.8,15.8v21.9h31.5v-21.9C1446.4,745.2,1439.3,738.1,1430.6,738.1z"/>
				<path fill="#7B9BA5" d="M1447.9,777.3h-34.6v-23.4c0-9.5,7.8-17.3,17.3-17.3c9.5,0,17.3,7.8,17.3,17.3V777.3z M1416.4,774.3
					h28.5v-20.4c0-7.9-6.4-14.2-14.2-14.2c-7.9,0-14.2,6.4-14.2,14.2V774.3z"/>
			</g>
			<g>
				<g>
					<ellipse fill="#AE8F3A" cx="1342.2" cy="740.4" rx="6.9" ry="9.2"/>
					<path fill="#7B9BA5" d="M1342.2,751c-4.6,0-8.4-4.8-8.4-10.7s3.8-10.7,8.4-10.7c4.6,0,8.4,4.8,8.4,10.7S1346.9,751,1342.2,751z
						 M1342.2,732.7c-2.9,0-5.3,3.5-5.3,7.6c0,4.1,2.4,7.6,5.3,7.6c2.9,0,5.3-3.5,5.3-7.6C1347.6,736.2,1345.1,732.7,1342.2,732.7z"
						/>
				</g>
				<g>
					<circle fill="#FFFFFF" cx="1342.2" cy="735.4" r="2.7"/>
				</g>
			</g>
			<g>
				<g>
					<ellipse fill="#AE8F3A" cx="1430.6" cy="740.4" rx="6.9" ry="9.2"/>
					<path fill="#7B9BA5" d="M1430.6,751c-4.6,0-8.4-4.8-8.4-10.7s3.8-10.7,8.4-10.7c4.6,0,8.4,4.8,8.4,10.7S1435.3,751,1430.6,751z
						 M1430.6,732.7c-2.9,0-5.3,3.5-5.3,7.6c0,4.1,2.4,7.6,5.3,7.6c2.9,0,5.3-3.5,5.3-7.6C1436,736.2,1433.5,732.7,1430.6,732.7z"/>
				</g>
				<g>
					<circle fill="#FFFFFF" cx="1430.6" cy="735.4" r="2.7"/>
				</g>
			</g>
			<g>
				<path fill="#7B9BA5" d="M1453.7,874.2h-46v-47.7c0-12.7,10.3-23,23-23c12.7,0,23,10.3,23,23V874.2z M1410.7,871.2h39.9v-44.6
					c0-11-9-20-20-20c-11,0-20,9-20,20V871.2z"/>
			</g>
			<g>
				<path fill="#7B9BA5" d="M1365.3,874.2h-46v-47.7c0-12.7,10.3-23,23-23c12.7,0,23,10.3,23,23V874.2z M1322.3,871.2h39.9v-44.6
					c0-11-9-20-20-20c-11,0-20,9-20,20V871.2z"/>
			</g>
			<g>
				<path fill="#1688B0" d="M1342.2,809.4c-8.7,0-15.8,7.1-15.8,15.8v47.5h31.5v-47.5C1358,816.5,1350.9,809.4,1342.2,809.4z"/>
				<path fill="#7B9BA5" d="M1359.5,874.2h-34.6v-49c0-9.5,7.8-17.3,17.3-17.3c9.5,0,17.3,7.8,17.3,17.3V874.2z M1328,871.2h28.5
					v-46c0-7.9-6.4-14.2-14.2-14.2c-7.9,0-14.2,6.4-14.2,14.2V871.2z"/>
			</g>
			<g>
				<path fill="#1688B0" d="M1430.6,809.4c-8.7,0-15.8,7.1-15.8,15.8v47.5h31.5v-47.5C1446.4,816.5,1439.3,809.4,1430.6,809.4z"/>
				<path fill="#7B9BA5" d="M1447.9,874.2h-34.6v-49c0-9.5,7.8-17.3,17.3-17.3c9.5,0,17.3,7.8,17.3,17.3V874.2z M1416.4,871.2h28.5
					v-46c0-7.9-6.4-14.2-14.2-14.2c-7.9,0-14.2,6.4-14.2,14.2V871.2z"/>
			</g>
			<g>
				<g>
					<ellipse fill="#AE8F3A" cx="1342.2" cy="811.7" rx="6.9" ry="9.2"/>
					<path fill="#7B9BA5" d="M1342.2,822.4c-4.6,0-8.4-4.8-8.4-10.7c0-5.9,3.8-10.7,8.4-10.7c4.6,0,8.4,4.8,8.4,10.7
						C1350.6,817.6,1346.9,822.4,1342.2,822.4z M1342.2,804.1c-2.9,0-5.3,3.5-5.3,7.6c0,4.1,2.4,7.6,5.3,7.6c2.9,0,5.3-3.5,5.3-7.6
						C1347.6,807.6,1345.1,804.1,1342.2,804.1z"/>
				</g>
				<g>
					<circle fill="#FFFFFF" cx="1342.2" cy="806.8" r="2.7"/>
				</g>
			</g>
			<g>
				<g>
					<ellipse fill="#AE8F3A" cx="1430.6" cy="811.7" rx="6.9" ry="9.2"/>
					<path fill="#7B9BA5" d="M1430.6,822.4c-4.6,0-8.4-4.8-8.4-10.7c0-5.9,3.8-10.7,8.4-10.7c4.6,0,8.4,4.8,8.4,10.7
						C1439,817.6,1435.3,822.4,1430.6,822.4z M1430.6,804.1c-2.9,0-5.3,3.5-5.3,7.6c0,4.1,2.4,7.6,5.3,7.6c2.9,0,5.3-3.5,5.3-7.6
						C1436,807.6,1433.5,804.1,1430.6,804.1z"/>
				</g>
				<g>
					<circle fill="#FFFFFF" cx="1430.6" cy="806.8" r="2.7"/>
				</g>
			</g>
		</g>
	</g>
	<g>
		<g>
			<polygon fill="#A5C7D8" points="244.3,872.7 274.5,872.7 274.5,696 244.3,682 			"/>
			<path fill="#7B9AA4" d="M276,874.2h-33.2V679.6l33.2,15.5V874.2z M245.9,871.2h27.1V697l-27.1-12.7V871.2z"/>
		</g>
		<g>
			<polygon fill="#AE8F3A" points="244.3,711.4 274.5,723.3 274.5,714 244.3,701.3 			"/>
			<path fill="#7B9BA5" d="M276,725.6l-33.2-13.1V699L276,713V725.6z M245.9,710.4l27.1,10.7V715l-27.1-11.4V710.4z"/>
		</g>
		<g>
			<polygon fill="#AE8F3A" points="244.3,787.5 274.5,799.4 274.5,790.1 244.3,777.4 			"/>
			<path fill="#7B9BA5" d="M276,801.7l-33.2-13.1v-13.5l33.2,13.9V801.7z M245.9,786.5l27.1,10.7v-6.1l-27.1-11.4V786.5z"/>
		</g>
		<g>
			<rect x="50.9" y="682" fill="#B6D7E2" width="193.5" height="190.7"/>
			<path fill="#7B9AA4" d="M245.9,874.2H49.3V680.4h196.5V874.2z M52.4,871.2h190.4V683.5H52.4V871.2z"/>
		</g>
		<g>
			<g>
				<polygon fill="#AE8F3A" points="147.6,653.6 267.9,699.4 147.6,699.4 27.2,699.4 				"/>
				<path fill="#7B9BA5" d="M267.9,700.9H27.2l-0.5-3l120.9-46.1L268.5,698L267.9,700.9z M35.5,697.9h224.1l-112.1-42.7L35.5,697.9z
					"/>
			</g>
			<g>
				<path fill="#AE8F3A" stroke="#7B9BA5" stroke-width="2" d="M27.2,699.4"/>
			</g>
			<g>
				<polygon fill="#D8F0FB" points="148,661.2 247.9,699.4 148,699.4 48.1,699.4 				"/>
				<path fill="#7B9BA5" d="M247.9,700.9H48.1l-0.5-3L148,659.6L248.5,698L247.9,700.9z M56.3,697.9h183.4L148,662.8L56.3,697.9z"/>
			</g>
			<g>
				<g>
					<polygon fill="#AE8F3A" points="148.3,649.2 148.9,649.2 157.7,649.2 153.5,667.3 149,667.3 148.2,667.3 143.7,667.3 
						139.5,649.2 					"/>
					<path fill="#7B9BA5" d="M154.7,668.8h-12.2l-5-21.1h22.1L154.7,668.8z M144.9,665.8h7.4l3.5-15h-14.4L144.9,665.8z"/>
				</g>
				<g>
					<polyline fill="#FFFFFF" points="157.2,649.3 140,649.3 141.7,653.1 155.5,653.1 					"/>
				</g>
				<g>
					<polygon fill="#FFFFFF" points="156.5,658.3 231,691.9 156.2,661.9 					"/>
				</g>
				<g>
					<polygon fill="#FFFFFF" points="140.7,658.3 66.2,691.9 141,661.9 					"/>
				</g>
			</g>
			<g>
				<g id="seashell_2_">
					<g>
						<path fill="#8B6828" d="M148.2,688.6c0,0-7.2-9-9.3-3.4C136.8,690.8,148.2,688.6,148.2,688.6z"/>
					</g>
					<g>
						<path fill="#9E7A2D" d="M148.6,689.7c0,0-0.6-14.7-6.9-10.5C135.4,683.3,148.6,689.7,148.6,689.7z"/>
					</g>
					<g>
						<path fill="#8B6828" d="M149,688.6c0,0,7.2-9,9.3-3.4C160.4,690.8,149,688.6,149,688.6z"/>
					</g>
					<g>
						<path fill="#9E7A2D" d="M148.6,689.7c0,0,0.6-14.7,6.9-10.5C161.8,683.3,148.6,689.7,148.6,689.7z"/>
					</g>
					<g>
						<path fill="#AE8F3A" d="M148.5,689.5c0,0,9.2-15.2,0-15.2C139.4,674.3,148.5,689.5,148.5,689.5z"/>
					</g>
					<g>
						<path fill="#8B6828" d="M148.2,688.5L148.2,688.5c0,0,0.1,0,0.4,0c0.2,0,0.4,0,0.4,0v0c1.3,0.1,3.8,0.5,3.8,2.8
							c-2.1,0-3.2,0-3.8,0c-0.7,0-0.7,0-0.7,0c-0.6,0-1.7,0-3.8,0C144.4,689,146.9,688.6,148.2,688.5z"/>
					</g>
				</g>
				<g>
					<ellipse fill="#FFFFFF" cx="148.6" cy="677.1" rx="2.2" ry="1.4"/>
				</g>
				<g>
					<ellipse fill="#FFFFFF" cx="148.5" cy="689.8" rx="1.5" ry="0.8"/>
				</g>
			</g>
		</g>
		<g>
			<g>
				<rect x="50.9" y="777.4" fill="#AE8F3A" width="193.5" height="11"/>
				<path fill="#7B9BA5" d="M245.9,790H49.3v-14.1h196.5V790z M52.4,786.9h190.4v-8H52.4V786.9z"/>
			</g>
			<g>
				<rect x="50.9" y="701.3" fill="#AE8F3A" width="193.5" height="11"/>
				<path fill="#7B9BA5" d="M245.9,713.9H49.3v-14.1h196.5V713.9z M52.4,710.8h190.4v-8H52.4V710.8z"/>
			</g>
		</g>
		<g id="windows_1_">
			<g>
				<path fill="#7B9BA5" d="M127.4,779.1h-46v-24.3c0-12.7,10.3-23,23-23s23,10.3,23,23V779.1z M84.4,776h39.9v-21.2
					c0-11-9-20-20-20c-11,0-20,9-20,20V776z"/>
			</g>
			<g>
				<path fill="#7B9BA5" d="M215.8,779.1h-46v-24.3c0-12.7,10.3-23,23-23s23,10.3,23,23V779.1z M172.8,776h39.9v-21.2
					c0-11-9-20-20-20c-11,0-20,9-20,20V776z"/>
			</g>
			<g>
				<path fill="#1688B0" d="M192.7,738.1c8.7,0,15.8,7.1,15.8,15.8v21.9H177v-21.9C177,745.2,184,738.1,192.7,738.1z"/>
				<path fill="#7B9BA5" d="M210,777.3h-34.6v-23.4c0-9.5,7.8-17.3,17.3-17.3s17.3,7.8,17.3,17.3V777.3z M178.5,774.3H207v-20.4
					c0-7.9-6.4-14.2-14.2-14.2s-14.2,6.4-14.2,14.2V774.3z"/>
			</g>
			<g>
				<path fill="#1688B0" d="M104.3,738.1c8.7,0,15.8,7.1,15.8,15.8v21.9H88.6v-21.9C88.6,745.2,95.6,738.1,104.3,738.1z"/>
				<path fill="#7B9BA5" d="M121.6,777.3H87v-23.4c0-9.5,7.8-17.3,17.3-17.3c9.5,0,17.3,7.8,17.3,17.3V777.3z M90.1,774.3h28.5
					v-20.4c0-7.9-6.4-14.2-14.2-14.2s-14.2,6.4-14.2,14.2V774.3z"/>
			</g>
			<g>
				<g>
					<ellipse fill="#AE8F3A" cx="192.7" cy="740.4" rx="6.9" ry="9.2"/>
					<path fill="#7B9BA5" d="M192.7,751c-4.6,0-8.4-4.8-8.4-10.7s3.8-10.7,8.4-10.7s8.4,4.8,8.4,10.7S197.4,751,192.7,751z
						 M192.7,732.7c-2.9,0-5.3,3.5-5.3,7.6c0,4.1,2.4,7.6,5.3,7.6s5.3-3.5,5.3-7.6C198.1,736.2,195.7,732.7,192.7,732.7z"/>
				</g>
				<g>
					<circle fill="#FFFFFF" cx="192.7" cy="735.4" r="2.7"/>
				</g>
			</g>
			<g>
				<g>
					<ellipse fill="#AE8F3A" cx="104.3" cy="740.4" rx="6.9" ry="9.2"/>
					<path fill="#7B9BA5" d="M104.3,751c-4.6,0-8.4-4.8-8.4-10.7s3.8-10.7,8.4-10.7s8.4,4.8,8.4,10.7S109,751,104.3,751z
						 M104.3,732.7c-2.9,0-5.3,3.5-5.3,7.6c0,4.1,2.4,7.6,5.3,7.6s5.3-3.5,5.3-7.6C109.7,736.2,107.3,732.7,104.3,732.7z"/>
				</g>
				<g>
					<circle fill="#FFFFFF" cx="104.3" cy="735.4" r="2.7"/>
				</g>
			</g>
			<g>
				<path fill="#7B9BA5" d="M127.4,874.2h-46v-47.7c0-12.7,10.3-23,23-23s23,10.3,23,23V874.2z M84.4,871.2h39.9v-44.6
					c0-11-9-20-20-20c-11,0-20,9-20,20V871.2z"/>
			</g>
			<g>
				<path fill="#7B9BA5" d="M215.8,874.2h-46v-47.7c0-12.7,10.3-23,23-23s23,10.3,23,23V874.2z M172.8,871.2h39.9v-44.6
					c0-11-9-20-20-20c-11,0-20,9-20,20V871.2z"/>
			</g>
			<g>
				<path fill="#1688B0" d="M192.7,809.4c8.7,0,15.8,7.1,15.8,15.8v47.5H177v-47.5C177,816.5,184,809.4,192.7,809.4z"/>
				<path fill="#7B9BA5" d="M210,874.2h-34.6v-49c0-9.5,7.8-17.3,17.3-17.3s17.3,7.8,17.3,17.3V874.2z M178.5,871.2H207v-46
					c0-7.9-6.4-14.2-14.2-14.2s-14.2,6.4-14.2,14.2V871.2z"/>
			</g>
			<g>
				<path fill="#1688B0" d="M104.3,809.4c8.7,0,15.8,7.1,15.8,15.8v47.5H88.6v-47.5C88.6,816.5,95.6,809.4,104.3,809.4z"/>
				<path fill="#7B9BA5" d="M121.6,874.2H87v-49c0-9.5,7.8-17.3,17.3-17.3c9.5,0,17.3,7.8,17.3,17.3V874.2z M90.1,871.2h28.5v-46
					c0-7.9-6.4-14.2-14.2-14.2s-14.2,6.4-14.2,14.2V871.2z"/>
			</g>
			<g>
				<g>
					<ellipse fill="#AE8F3A" cx="192.7" cy="811.7" rx="6.9" ry="9.2"/>
					<path fill="#7B9BA5" d="M192.7,822.4c-4.6,0-8.4-4.8-8.4-10.7c0-5.9,3.8-10.7,8.4-10.7s8.4,4.8,8.4,10.7
						C201.1,817.6,197.4,822.4,192.7,822.4z M192.7,804.1c-2.9,0-5.3,3.5-5.3,7.6c0,4.1,2.4,7.6,5.3,7.6c2.9,0,5.3-3.4,5.3-7.6
						C198.1,807.6,195.6,804.1,192.7,804.1z"/>
				</g>
				<g>
					<circle fill="#FFFFFF" cx="192.7" cy="806.8" r="2.7"/>
				</g>
			</g>
			<g>
				<g>
					<ellipse fill="#AE8F3A" cx="104.3" cy="811.7" rx="6.9" ry="9.2"/>
					<path fill="#7B9BA5" d="M104.3,822.4c-4.6,0-8.4-4.8-8.4-10.7c0-5.9,3.8-10.7,8.4-10.7s8.4,4.8,8.4,10.7
						C112.7,817.6,109,822.4,104.3,822.4z M104.3,804.1c-2.9,0-5.3,3.5-5.3,7.6c0,4.1,2.4,7.6,5.3,7.6c2.9,0,5.3-3.4,5.3-7.6
						C109.7,807.6,107.2,804.1,104.3,804.1z"/>
				</g>
				<g>
					<circle fill="#FFFFFF" cx="104.3" cy="806.8" r="2.7"/>
				</g>
			</g>
		</g>
	</g>
	<g>
		<line fill="#FFFFFF" x1="767.5" y1="11.8" x2="767.5" y2="134.7"/>
		<rect x="764.4" y="11.8" fill="#FFFFFF" width="6.1" height="122.9"/>
	</g>
	<g>
		<line fill="#FFFFFF" x1="756.9" y1="96.3" x2="778" y2="96.3"/>
		<rect x="756.9" y="93.2" fill="#FFFFFF" width="21.1" height="6.1"/>
	</g>
	<g>
		<ellipse fill="#AE8F3A" cx="767.5" cy="138.8" rx="7.1" ry="4.1"/>
	</g>
	<g>
		<rect x="762.3" y="141.6" fill="#D8F0FB" width="10.4" height="40.5"/>
		<path fill="#7B9BA5" d="M774.2,183.6h-13.5V140h13.5V183.6z M763.8,180.5h7.4v-37.4h-7.4V180.5z"/>
	</g>
	<g>
		<path fill="#D8F0FB" d="M767.5,178.7c-16.6,0-13.6,32.3-13.6,32.3h13.6h13.6C781.1,211,784.1,178.7,767.5,178.7z"/>
		<path fill="#7B9BA5" d="M782.5,212.6h-30.1l-0.1-1.4c-0.1-0.9-1.9-21.2,6.1-30c2.4-2.6,5.5-4,9.1-4c3.6,0,6.6,1.3,9.1,4
			c8,8.8,6.2,29.1,6.1,30L782.5,212.6z M755.3,209.5h24.4c0.3-4.6,0.6-19.7-5.4-26.3c-1.8-2-4.1-3-6.8-3c-2.7,0-5,1-6.8,3
			C754.7,189.8,755,204.9,755.3,209.5z"/>
	</g>
	<g>
		<rect x="755.6" y="157.2" fill="#AE8F3A" width="23.8" height="4.5"/>
	</g>
	<g>
		<rect x="759.5" y="160.3" fill="#AE8F3A" width="16" height="4.5"/>
	</g>
	<g id="base_5_">
		<path fill="#D8F0FB" d="M767.5,201.5c-11.5,0-20.9,4.5-20.9,10.1v100.5h41.8V211.6C788.4,206,779,201.5,767.5,201.5z"/>
		<path fill="#7B9BA5" d="M789.9,313.7h-44.8V211.6c0-6.5,9.8-11.6,22.4-11.6c12.6,0,22.4,5.1,22.4,11.6V313.7z M748.1,310.6h38.7
			v-99c0-4.1-8-8.6-19.4-8.6c-11.4,0-19.4,4.5-19.4,8.6V310.6z"/>
	</g>
	<g id="band_3_">
		<path fill="#AE8F3A" d="M767.5,245.6c10.9,0,17.5,3.4,21.5,7.4c3.8-3.9,6-7.4,6-7.4s-1.9-18.9-27.5-18.9
			c-25.6,0-27.5,18.9-27.5,18.9s2.3,3.4,6,7.4C750,249,756.6,245.6,767.5,245.6z"/>
		<path fill="#7B9BA5" d="M789,255.1l-1.1-1.1c-4.7-4.6-11.5-6.9-20.5-6.9c-8.9,0-15.8,2.3-20.5,6.9l-1.1,1.1l-1.1-1.1
			c-3.8-4-6.1-7.5-6.2-7.6l-0.3-0.5l0.1-0.5c0-0.2,2.4-20.3,29.1-20.3c26.7,0,29,20.1,29.1,20.3l0.1,0.5l-0.3,0.5
			c-0.1,0.1-2.4,3.6-6.2,7.6L789,255.1z M741.6,245.2c0.6,0.9,2.2,3.1,4.5,5.6c5.2-4.5,12.4-6.8,21.4-6.8c9,0,16.2,2.3,21.4,6.8
			c2.3-2.5,3.9-4.7,4.5-5.6c-0.5-3-4.2-17-25.9-17C745.7,228.2,742.1,242.2,741.6,245.2z"/>
	</g>
	<g id="bars_3_">
		<g>
			<rect x="765" y="251.4" fill="#AFD9E5" width="5" height="44.5"/>
			<path fill="#7B9BA5" d="M771.5,297.4h-8v-47.6h8V297.4z M766.5,294.4h1.9v-41.5h-1.9V294.4z"/>
		</g>
		<g>
			<rect x="753.2" y="255.5" fill="#AFD9E5" width="5" height="36.4"/>
			<path fill="#7B9BA5" d="M759.6,293.4h-8v-39.4h8V293.4z M754.7,290.3h1.9V257h-1.9V290.3z"/>
		</g>
		<g>
			<rect x="776.9" y="255.5" fill="#AFD9E5" width="5" height="36.4"/>
			<path fill="#7B9BA5" d="M783.4,293.4h-8v-39.4h8V293.4z M778.4,290.3h1.9V257h-1.9V290.3z"/>
		</g>
	</g>
	<g id="lines_7_">
		<g>
			<line fill="#AE8F3A" x1="751.7" y1="204.8" x2="751.7" y2="229.9"/>
			<rect x="750.1" y="204.8" fill="#7B9BA5" width="3.1" height="25.1"/>
		</g>
		<g>
			<line fill="#AE8F3A" x1="756.9" y1="203.3" x2="756.9" y2="228.4"/>
			<rect x="755.4" y="203.3" fill="#7B9BA5" width="3.1" height="25.1"/>
		</g>
		<g>
			<line fill="#AE8F3A" x1="762.2" y1="201.8" x2="762.2" y2="226.8"/>
			<rect x="760.7" y="201.8" fill="#7B9BA5" width="3.1" height="25.1"/>
		</g>
		<g>
			<line fill="#AE8F3A" x1="767.5" y1="201.8" x2="767.5" y2="226.8"/>
			<rect x="766" y="201.8" fill="#7B9BA5" width="3.1" height="25.1"/>
		</g>
		<g>
			<line fill="#AE8F3A" x1="772.8" y1="201.8" x2="772.8" y2="226.8"/>
			<rect x="771.2" y="201.8" fill="#7B9BA5" width="3.1" height="25.1"/>
		</g>
		<g>
			<line fill="#AE8F3A" x1="778" y1="203.3" x2="778" y2="228.4"/>
			<rect x="776.5" y="203.3" fill="#7B9BA5" width="3.1" height="25.1"/>
		</g>
		<g>
			<line fill="#AE8F3A" x1="783.3" y1="204.8" x2="783.3" y2="229.9"/>
			<rect x="781.8" y="204.8" fill="#7B9BA5" width="3.1" height="25.1"/>
		</g>
	</g>
	<g id="base_1_">
		<path fill="#D8F0FB" d="M806.9,334.9c-13.9-22.2-18.7-29.5-18.7-29.5l-20.7,0l0,0h-20.7c0,0-4.9,7.4-18.7,29.5
			c-20.4,32.7-47.5,22.3-47.5,172.2h86.9l0,0h86.9C854.4,357.2,827.4,367.6,806.9,334.9z"/>
	</g>
	<g id="lines">
		<g>
			<path fill="#7B9BA5" d="M687.8,483.8c-5.9-85.6,10.3-113,11-114.2l2.6,1.6l-1.3-0.8l1.3,0.8c0,0.1-4.2,6.9-7.5,24.1
				c-3.1,15.9-6.1,44.1-3.1,88.2L687.8,483.8z"/>
		</g>
		<g>
			<path fill="#7B9BA5" d="M718.4,470.2c-11-93.8,5-114.6,15.5-128.4c1.4-1.8,2.7-3.5,3.8-5.2c8.9-13.8,12.3-31.3,12.3-31.5l3,0.6
				c-0.1,0.7-3.6,18.3-12.8,32.6c-1.1,1.8-2.5,3.5-3.9,5.4c-10.2,13.4-25.7,33.6-14.9,126.2L718.4,470.2z"/>
		</g>
		<g>
			<path fill="#7B9BA5" d="M750,462.2c-5.3-96.7-4.4-103.2,4.2-124.8c2.3-5.8,6.1-32,6.2-32.2l3,0.4c-0.2,1.1-3.9,26.8-6.4,32.9
				c-8.4,21.1-9.3,27.5-4,123.5L750,462.2z"/>
		</g>
		<g>
			<path fill="#7B9BA5" d="M847.2,483.8l-3-0.2c3.1-44.1,0-72.3-3.1-88.2c-3.3-17.2-7.5-24.1-7.5-24.1l2.6-1.6
				C836.9,370.7,853.1,398.1,847.2,483.8z"/>
		</g>
		<g>
			<path fill="#7B9BA5" d="M816.6,470.2l-3-0.4c10.8-92.6-4.7-112.8-14.9-126.2c-1.4-1.8-2.8-3.6-3.9-5.4
				c-9.2-14.3-12.6-31.8-12.8-32.6l3-0.6c0,0.2,3.5,17.7,12.3,31.5c1.1,1.7,2.4,3.4,3.8,5.2C811.6,355.6,827.5,376.4,816.6,470.2z"
				/>
		</g>
		<g>
			<path fill="#7B9BA5" d="M785,462.2l-3-0.2c5.3-96,4.4-102.4-4-123.5c-2.4-6.2-6.2-31.8-6.4-32.9l3-0.4c0,0.3,3.9,26.4,6.2,32.2
				C789.4,359.1,790.3,365.6,785,462.2z"/>
		</g>
	</g>
	<g id="square_windows">
		<g>
			<g>
				<rect x="690.4" y="477.8" fill="#AE8F3A" width="22.4" height="29"/>
			</g>
			<g>
				<rect x="719.9" y="468" fill="#AE8F3A" width="22.4" height="29"/>
			</g>
			<g>
				<rect x="822.2" y="477.8" fill="#AE8F3A" width="22.4" height="29"/>
			</g>
			<g>
				<rect x="792.7" y="468" fill="#AE8F3A" width="22.4" height="29"/>
			</g>
			<g>
				<rect x="756.3" y="461.9" fill="#AE8F3A" width="22.4" height="29"/>
			</g>
		</g>
		<g>
			<g>
				<rect x="696" y="485" fill="#D8F0FB" width="11.2" height="14.5"/>
				<path fill="#7B9BA5" d="M708.7,501h-14.2v-17.6h14.2V501z M697.5,498h8.1v-11.4h-8.1V498z"/>
			</g>
			<g>
				<rect x="725.5" y="475.3" fill="#D8F0FB" width="11.2" height="14.5"/>
				<path fill="#7B9BA5" d="M738.2,491.3H724v-17.6h14.2V491.3z M727,488.2h8.1v-11.4H727V488.2z"/>
			</g>
			<g>
				<rect x="827.8" y="485" fill="#D8F0FB" width="11.2" height="14.5"/>
				<path fill="#7B9BA5" d="M840.5,501h-14.2v-17.6h14.2V501z M829.3,498h8.1v-11.4h-8.1V498z"/>
			</g>
			<g>
				<rect x="798.3" y="475.3" fill="#D8F0FB" width="11.2" height="14.5"/>
				<path fill="#7B9BA5" d="M811,491.3h-14.2v-17.6H811V491.3z M799.8,488.2h8.1v-11.4h-8.1V488.2z"/>
			</g>
			<g>
				<rect x="761.9" y="469.2" fill="#D8F0FB" width="11.2" height="14.5"/>
				<path fill="#7B9BA5" d="M774.6,485.2h-14.2v-17.6h14.2V485.2z M763.4,482.1h8.1v-11.4h-8.1V482.1z"/>
			</g>
		</g>
	</g>
	<g id="band">
		<path fill="#AE8F3A" d="M767.8,461.3L767.8,461.3c0.2,0,0.3,0,0.5,0c0.2,0,0.3,0,0.5,0v0c43.6,0.3,71.9,16.7,86.2,27.9
			c6.5-4.5,10.3-7.7,10.3-7.7s-31-37.8-97.2-38.1v0c-0.2,0-0.3,0-0.5,0s-0.3,0-0.5,0v0c-66.2,0.4-97.2,38.1-97.2,38.1
			s4,3.5,11.1,8.3C694.9,478.6,723.4,461.5,767.8,461.3z"/>
		<path fill="#7B9BA5" d="M680.9,491.7L680,491c-7.1-4.8-11.1-8.3-11.2-8.4l-1.1-1l0.9-1.1c0.3-0.4,31.7-37.7,96.9-38.7v0l1.5,0
			l0.5,0l2,0v0c33.8,0.5,58.1,10.8,72.7,19.4c16.1,9.5,23.9,18.9,24.2,19.3l0.9,1.1l-1.1,1c-0.2,0.1-3.8,3.3-10.4,7.8l-0.9,0.6
			l-0.9-0.7c-13-10.2-41.3-27.3-85.2-27.6l-0.7,0l-0.2,0c-44.5,0.3-72.9,17.7-85.9,28.2L680.9,491.7z M672,481.3
			c1.6,1.3,4.6,3.6,8.8,6.6c13.5-10.6,41.9-27.5,85.4-28.1v0l1.5,0l0.5,0l2,0v0c43,0.6,71.2,17.1,84.7,27.5c3.8-2.7,6.6-4.8,8-6
			c-5.8-6.2-36.8-36.1-95-36.5l-0.7,0l-0.2,0C708.8,445.2,677.8,475.1,672,481.3z"/>
	</g>
	<g id="oval_windows">
		<g>
			<g>
				<ellipse fill="#AE8F3A" cx="703.8" cy="405.4" rx="9" ry="16.8"/>
			</g>
			<g>
				<path fill="#FFFFFF" d="M697.7,417.8c1,1.7,2.1,2.9,3.4,3.7l8.3-29.1c-1-1.5-2.2-2.7-3.6-3.3L697.7,417.8z"/>
			</g>
			<g>
				<ellipse fill="#D8F0FB" cx="703.8" cy="405.4" rx="3.7" ry="10.2"/>
				<path fill="#7B9BA5" d="M703.8,417.1c-3.6,0-5.2-6.1-5.2-11.7c0-5.6,1.6-11.7,5.2-11.7c3.6,0,5.2,6.1,5.2,11.7
					C709,411,707.3,417.1,703.8,417.1z M703.7,396.7c-0.5,0.2-2.1,3.2-2.1,8.7c0,5.4,1.5,8.3,2.2,8.6c0.6-0.3,2.2-3.2,2.2-8.6
					C705.9,399.9,704.3,396.9,703.7,396.7z"/>
			</g>
		</g>
		<g>
			<g>
				<ellipse fill="#AE8F3A" cx="733.3" cy="395.7" rx="9" ry="16.8"/>
			</g>
			<g>
				<path fill="#FFFFFF" d="M727.2,408.1c1,1.7,2.1,2.9,3.4,3.7l8.3-29.1c-1-1.5-2.2-2.7-3.6-3.3L727.2,408.1z"/>
			</g>
			<g>
				<ellipse fill="#D8F0FB" cx="733.3" cy="395.7" rx="3.7" ry="10.2"/>
				<path fill="#7B9BA5" d="M733.3,407.4c-3.6,0-5.2-6.1-5.2-11.7c0-5.6,1.6-11.7,5.2-11.7c3.6,0,5.2,6.1,5.2,11.7
					C738.5,401.4,736.9,407.4,733.3,407.4z M733.2,387.1c-0.5,0.2-2.1,3.2-2.1,8.7c0,5.4,1.5,8.3,2.2,8.6c0.6-0.3,2.2-3.2,2.2-8.6
					C735.4,390.2,733.8,387.3,733.2,387.1z"/>
			</g>
		</g>
		<g>
			<g>
				<ellipse fill="#AE8F3A" cx="767.5" cy="389.5" rx="9" ry="16.8"/>
			</g>
			<g>
				<path fill="#FFFFFF" d="M761.4,401.9c1,1.7,2.1,2.9,3.4,3.7l8.3-29.1c-1-1.5-2.2-2.7-3.6-3.3L761.4,401.9z"/>
			</g>
			<g>
				<ellipse fill="#D8F0FB" cx="767.5" cy="389.5" rx="3.7" ry="10.2"/>
				<path fill="#7B9BA5" d="M767.5,401.2c-3.6,0-5.2-6.1-5.2-11.7s1.6-11.7,5.2-11.7c3.6,0,5.2,6.1,5.2,11.7
					S771.1,401.2,767.5,401.2z M767.5,380.8c-0.5,0.2-2.1,3.2-2.1,8.7c0,5.4,1.5,8.3,2.2,8.6c0.6-0.3,2.2-3.2,2.2-8.6
					C769.7,384,768.1,381,767.5,380.8z"/>
			</g>
		</g>
		<g>
			<g>
				<ellipse fill="#AE8F3A" cx="802.3" cy="395.7" rx="9" ry="16.8"/>
			</g>
			<g>
				<path fill="#FFFFFF" d="M796.2,408.1c1,1.7,2.1,2.9,3.4,3.7l8.3-29.1c-1-1.5-2.2-2.7-3.6-3.3L796.2,408.1z"/>
			</g>
			<g>
				<ellipse fill="#D8F0FB" cx="802.3" cy="395.7" rx="3.7" ry="10.2"/>
				<path fill="#7B9BA5" d="M802.3,407.4c-3.6,0-5.2-6.1-5.2-11.7c0-5.6,1.6-11.7,5.2-11.7c3.6,0,5.2,6.1,5.2,11.7
					C807.5,401.4,805.8,407.4,802.3,407.4z M802.2,387.1c-0.5,0.2-2.1,3.2-2.1,8.7c0,5.4,1.5,8.3,2.2,8.6c0.6-0.3,2.2-3.2,2.2-8.6
					C804.4,390.2,802.8,387.3,802.2,387.1z"/>
			</g>
		</g>
		<g>
			<g>
				<ellipse fill="#AE8F3A" cx="831.8" cy="405.4" rx="9" ry="16.8"/>
			</g>
			<g>
				<path fill="#FFFFFF" d="M825.7,417.8c1,1.7,2.1,2.9,3.4,3.7l8.3-29.1c-1-1.5-2.2-2.7-3.6-3.3L825.7,417.8z"/>
			</g>
			<g>
				<ellipse fill="#D8F0FB" cx="831.8" cy="405.4" rx="3.7" ry="10.2"/>
				<path fill="#7B9BA5" d="M831.8,417.1c-3.6,0-5.2-6.1-5.2-11.7c0-5.6,1.6-11.7,5.2-11.7c3.6,0,5.2,6.1,5.2,11.7
					C837,411,835.4,417.1,831.8,417.1z M831.7,396.7c-0.5,0.2-2.1,3.2-2.1,8.7c0,5.4,1.5,8.3,2.2,8.6c0.6-0.3,2.2-3.2,2.2-8.6
					C833.9,399.9,832.3,396.9,831.7,396.7z"/>
			</g>
		</g>
	</g>
	<g>
		<rect x="740.7" y="302.3" fill="#AE8F3A" width="53.6" height="6.8"/>
		<path fill="#7B9BA5" d="M795.8,310.6h-56.7v-9.9h56.7V310.6z M742.2,307.5h50.6v-3.7h-50.6V307.5z"/>
	</g>
	<g id="base_3_">
		<path fill="#D8F0FB" d="M767.5,494.2c-63.8,0-115.5,24.6-115.5,54.9v63.7h231v-63.7C883,518.8,831.3,494.2,767.5,494.2z"/>
		<path fill="#7B9BA5" d="M884.5,614.4h-234v-65.3c0-31.1,52.5-56.5,117-56.5s117,25.3,117,56.5V614.4z M653.5,611.3h227.9v-62.2
			c0-29.5-51.1-53.4-114-53.4s-114,24-114,53.4V611.3z"/>
	</g>
	<g id="bars_2_">
		<g>
			<rect x="664.7" y="527" fill="#AE8F3A" width="10.7" height="42.2"/>
			<path fill="#7B9BA5" d="M676.9,570.7h-13.7v-45.2h13.7V570.7z M666.2,567.6h7.6v-39.1h-7.6V567.6z"/>
		</g>
		<g>
			<rect x="702.2" y="511" fill="#AE8F3A" width="10.7" height="54.9"/>
			<path fill="#7B9BA5" d="M714.4,567.4h-13.7v-57.9h13.7V567.4z M703.7,564.4h7.6v-51.8h-7.6V564.4z"/>
		</g>
		<g>
			<rect x="740.8" y="507" fill="#AE8F3A" width="10.7" height="43.7"/>
			<path fill="#7B9BA5" d="M753.1,552.2h-13.7v-46.7h13.7V552.2z M742.4,549.2h7.6v-40.6h-7.6V549.2z"/>
		</g>
		<g>
			<rect x="859.6" y="527" fill="#AE8F3A" width="10.7" height="42.2"/>
			<path fill="#7B9BA5" d="M871.8,570.7h-13.7v-45.2h13.7V570.7z M861.1,567.6h7.6v-39.1h-7.6V567.6z"/>
		</g>
		<g>
			<rect x="822.1" y="511" fill="#AE8F3A" width="10.7" height="54.9"/>
			<path fill="#7B9BA5" d="M834.3,567.4h-13.7v-57.9h13.7V567.4z M823.6,564.4h7.6v-51.8h-7.6V564.4z"/>
		</g>
		<g>
			<rect x="783.4" y="507" fill="#AE8F3A" width="10.7" height="43.7"/>
			<path fill="#7B9BA5" d="M795.7,552.2h-13.7v-46.7h13.7V552.2z M785,549.2h7.6v-40.6H785V549.2z"/>
		</g>
	</g>
	<g id="accents_3_">
		<g>
			<rect x="648.7" y="500.3" fill="#D8F0FB" width="4.7" height="22.9"/>
			<path fill="#7B9BA5" d="M654.9,524.7h-7.8v-25.9h7.8V524.7z M650.2,521.6h1.7v-19.8h-1.7V521.6z"/>
		</g>
		<g>
			<rect x="881.6" y="500.3" fill="#D8F0FB" width="4.7" height="22.9"/>
			<path fill="#7B9BA5" d="M887.8,524.7h-7.8v-25.9h7.8V524.7z M883.1,521.6h1.7v-19.8h-1.7V521.6z"/>
		</g>
	</g>
	<g>
		<path fill="#AFD9E5" d="M650.6,556.5C662.7,531,710.5,512,767.7,512c56.9,0,104.5,18.8,116.9,44.1c0.2-0.5,0.5-1,0.7-1.5
			c3.7-4.5,12.2-17.1,12.2-37.1h-22.4c-18.5-17.5-55.3-29.9-98.5-31.4c-0.3,0-0.6,0-0.9,0c-1.1,0-2.1-0.1-3.2-0.1
			c-1.3,0-2.5,0-3.8,0c-0.3,0-0.6,0-0.9,0c-0.1,0-0.1,0-0.2,0c-0.1,0-0.1,0-0.2,0c-0.3,0-0.6,0-1,0c-1.3,0-2.6,0-3.8,0
			c-1.1,0-2.1,0-3.2,0.1c-0.3,0-0.6,0-0.9,0c-43.2,1.5-80,13.9-98.5,31.4h-22.4c0,20,8.5,32.6,12.2,37.1
			C650,555.2,650.3,555.9,650.6,556.5z"/>
		<path fill="#7B9BA5" d="M650.7,560l-1.4-2.8c-0.3-0.6-0.6-1.2-0.9-1.8c-3.8-4.8-12.4-17.7-12.4-37.9v-1.5h23.4
			c19.3-17.9,57.1-29.9,99-31.4l0.9,0c1.1,0,2.1-0.1,3.2-0.1c1.3,0,2.6,0,3.9,0l1.3,0l1,0c1.3,0,2.6,0,3.8,0c1.1,0,2.1,0,3.2,0.1
			l0.9,0c41.9,1.5,79.8,13.5,99,31.4H899v1.5c0,20.3-8.6,33.2-12.4,37.9c-0.2,0.4-0.3,0.7-0.5,1.1l-1.5,3.1l-1.4-2.8
			c-12.3-25-60.9-43.2-115.5-43.2c-55,0-103.7,18.3-115.7,43.6L650.7,560z M639,519c0.4,18.1,8,29.8,11.6,34.3
			c14.5-25.3,61.9-42.8,117.1-42.8c54.9,0,102.2,17.3,116.9,42.5c3.7-4.7,10.9-16.2,11.3-34h-21.5l-0.4-0.4
			c-18.6-17.7-56-29.5-97.5-31l-0.9,0c-1.1,0-2.1-0.1-3.2-0.1c-1.3,0-2.5,0-3.8,0l-1.3,0l-0.9,0c-1.3,0-2.6,0-3.8,0
			c-1.1,0-2.1,0-3.2,0.1l-0.9,0c-41.5,1.5-78.9,13.3-97.5,31l-0.4,0.4H639z"/>
	</g>
	<g>
		<path fill="#AE8F3A" d="M659.9,528.2c18.5-17.5,55.3-29.9,98.5-31.4c0.3,0,0.6,0,0.9,0c1.1,0,2.1-0.1,3.2-0.1c1.3,0,2.5,0,3.8,0
			c0.3,0,0.6,0,1,0c0.1,0,0.1,0,0.2,0c0.1,0,0.1,0,0.2,0c0.3,0,0.6,0,0.9,0c1.3,0,2.6,0,3.8,0c1.1,0,2.1,0,3.2,0.1
			c0.3,0,0.6,0,0.9,0c43.2,1.5,80,13.9,98.5,31.4h21.6c0.5-3.3,0.9-6.9,0.9-10.8h-22.4c-18.5-17.5-55.3-29.9-98.5-31.4
			c-0.3,0-0.6,0-0.9,0c-1.1,0-2.1-0.1-3.2-0.1c-1.3,0-2.5,0-3.8,0c-0.3,0-0.6,0-0.9,0c-0.1,0-0.1,0-0.2,0c-0.1,0-0.1,0-0.2,0
			c-0.3,0-0.6,0-1,0c-1.3,0-2.6,0-3.8,0c-1.1,0-2.1,0-3.2,0.1c-0.3,0-0.6,0-0.9,0c-43.2,1.5-80,13.9-98.5,31.4h-22.4
			c0,3.9,0.3,7.4,0.9,10.8H659.9z"/>
		<path fill="#7B9BA5" d="M897.9,529.7h-23.5l-0.4-0.4c-18.6-17.7-56-29.5-97.5-31l-0.9,0c-1.1,0-2.1-0.1-3.2-0.1
			c-1.3,0-2.5,0-3.8,0l-1.3,0l-0.9,0c-1.3,0-2.6,0-3.8,0c-1.1,0-2.1,0-3.2,0.1l-0.9,0c-41.5,1.5-78.9,13.3-97.5,31l-0.4,0.4H637
			l-0.2-1.3c-0.6-3.6-0.9-7.3-0.9-11v-1.5h23.4c19.3-17.9,57.1-29.9,99-31.4l0.9,0c1.1,0,2.1-0.1,3.2-0.1c1.3,0,2.6,0,3.9,0l1.3,0
			l1,0c1.3,0,2.6,0,3.9,0c1.1,0,2.1,0,3.2,0.1l0.9,0c41.9,1.5,79.8,13.5,99,31.4H899v1.5c0,3.7-0.3,7.4-0.9,11L897.9,529.7z
			 M875.7,526.7h19.7c0.4-2.5,0.6-5.1,0.6-7.7h-21.5l-0.4-0.4c-18.6-17.7-56-29.5-97.5-31l-0.9,0c-1.1,0-2.1-0.1-3.2-0.1
			c-1.3,0-2.5,0-3.8,0l-1.3,0l-0.9,0c-1.3,0-2.5,0-3.8,0c-1.1,0-2.1,0-3.2,0.1l-0.9,0c-41.5,1.5-78.9,13.3-97.5,31l-0.4,0.4H639
			c0.1,2.6,0.3,5.2,0.6,7.7h19.7c19.3-17.9,57.1-29.9,99-31.4l0.9,0c1.1,0,2.1-0.1,3.2-0.1c1.3,0,2.6,0,3.9,0l1.3,0l1,0
			c1.3,0,2.6,0,3.8,0c1.1,0,2.1,0,3.2,0.1l0.9,0C818.5,496.8,856.4,508.8,875.7,526.7z"/>
	</g>
	<g>
		<g>
			<rect x="739.9" y="500.3" fill="#D8F0FB" width="55.2" height="13.7"/>
			<path fill="#7B9BA5" d="M796.6,515.5h-58.3v-16.8h58.3V515.5z M741.4,512.5h52.2v-10.7h-52.2V512.5z"/>
		</g>
		<g>
			<rect x="730.5" y="485.3" fill="#D8F0FB" width="74" height="8.9"/>
			<path fill="#7B9BA5" d="M806,495.7H729v-12H806V495.7z M732,492.6h71v-5.9h-71V492.6z"/>
		</g>
		<g>
			<rect x="735.3" y="494.2" fill="#AFD9E5" width="64.4" height="6.1"/>
			<path fill="#7B9BA5" d="M801.2,501.8h-67.4v-9.2h67.4V501.8z M736.8,498.8h61.3v-3.1h-61.3V498.8z"/>
		</g>
	</g>
	<g id="back_1_">
		<rect x="508.3" y="580" fill="#AFD9E5" width="518.5" height="308.4"/>
	</g>
	<g id="front_1_">
		<rect x="637.3" y="569.2" fill="#D8F0FB" width="260.4" height="317.3"/>
		<path fill="#7B9BA5" d="M899.2,888H635.8V567.6h263.5V888z M638.8,885h257.3V570.7H638.8V885z"/>
	</g>
	<g id="right">
		<g>
			<g>
				<path fill="#7B9BA5" d="M1004.5,663.4h-46v-24.3c0-12.7,10.3-23,23-23c12.7,0,23,10.3,23,23V663.4z M961.6,660.4h39.9v-21.2
					c0-11-9-20-20-20s-20,9-20,20V660.4z"/>
			</g>
			<g>
				<path fill="#7B9BA5" d="M946.7,663.4h-46v-24.3c0-12.7,10.3-23,23-23c12.7,0,23,10.3,23,23V663.4z M903.7,660.4h39.9v-21.2
					c0-11-9-20-20-20c-11,0-20,9-20,20V660.4z"/>
			</g>
			<g>
				<path fill="#1688B0" d="M923.6,622.5c-8.7,0-15.8,7.1-15.8,15.8v21.9h31.5v-21.9C939.4,629.5,932.3,622.5,923.6,622.5z"/>
				<path fill="#7B9BA5" d="M940.9,661.7h-34.6v-23.4c0-9.5,7.8-17.3,17.3-17.3c9.5,0,17.3,7.8,17.3,17.3V661.7z M909.4,658.6h28.5
					v-20.4c0-7.9-6.4-14.2-14.2-14.2c-7.9,0-14.2,6.4-14.2,14.2V658.6z"/>
			</g>
			<g>
				<path fill="#1688B0" d="M981.5,622.5c-8.7,0-15.8,7.1-15.8,15.8v21.9h31.5v-21.9C997.3,629.5,990.2,622.5,981.5,622.5z"/>
				<path fill="#7B9BA5" d="M998.8,661.7h-34.6v-23.4c0-9.5,7.8-17.3,17.3-17.3s17.3,7.8,17.3,17.3V661.7z M967.3,658.6h28.5v-20.4
					c0-7.9-6.4-14.2-14.2-14.2c-7.9,0-14.2,6.4-14.2,14.2V658.6z"/>
			</g>
			<g>
				<g>
					<ellipse fill="#AE8F3A" cx="923.6" cy="624.7" rx="6.9" ry="9.2"/>
					<path fill="#7B9BA5" d="M923.6,635.4c-4.6,0-8.4-4.8-8.4-10.7s3.8-10.7,8.4-10.7c4.6,0,8.4,4.8,8.4,10.7
						S928.3,635.4,923.6,635.4z M923.6,617.1c-2.9,0-5.3,3.4-5.3,7.6c0,4.1,2.4,7.6,5.3,7.6c2.9,0,5.3-3.5,5.3-7.6
						C929,620.6,926.5,617.1,923.6,617.1z"/>
				</g>
				<g>
					<circle fill="#FFFFFF" cx="923.6" cy="619.8" r="2.7"/>
				</g>
			</g>
			<g>
				<g>
					<ellipse fill="#AE8F3A" cx="981.5" cy="624.7" rx="6.9" ry="9.2"/>
					<path fill="#7B9BA5" d="M981.5,635.4c-4.6,0-8.4-4.8-8.4-10.7s3.8-10.7,8.4-10.7c4.6,0,8.4,4.8,8.4,10.7
						S986.1,635.4,981.5,635.4z M981.5,617.1c-2.9,0-5.3,3.5-5.3,7.6c0,4.1,2.4,7.6,5.3,7.6c2.9,0,5.3-3.5,5.3-7.6
						C986.9,620.6,984.4,617.1,981.5,617.1z"/>
				</g>
				<g>
					<circle fill="#FFFFFF" cx="981.5" cy="619.8" r="2.7"/>
				</g>
			</g>
		</g>
		<g>
			<g>
				<path fill="#7B9BA5" d="M1004.5,775.8h-46v-64.9c0-12.7,10.3-23,23-23c12.7,0,23,10.3,23,23V775.8z M961.6,772.7h39.9v-61.8
					c0-11-9-20-20-20s-20,9-20,20V772.7z"/>
			</g>
			<g>
				<path fill="#7B9BA5" d="M946.7,775.8h-46v-64.9c0-12.7,10.3-23,23-23c12.7,0,23,10.3,23,23V775.8z M903.7,772.7h39.9v-61.8
					c0-11-9-20-20-20c-11,0-20,9-20,20V772.7z"/>
			</g>
			<g>
				<path fill="#1688B0" d="M923.6,693.8c-8.7,0-15.8,7.1-15.8,15.8v61.3h31.5v-61.3C939.4,700.9,932.3,693.8,923.6,693.8z"/>
				<path fill="#7B9BA5" d="M940.9,772.4h-34.6v-62.8c0-9.5,7.8-17.3,17.3-17.3c9.5,0,17.3,7.8,17.3,17.3V772.4z M909.4,769.3h28.5
					v-59.7c0-7.9-6.4-14.2-14.2-14.2c-7.9,0-14.2,6.4-14.2,14.2V769.3z"/>
			</g>
			<g>
				<path fill="#1688B0" d="M981.5,693.8c-8.7,0-15.8,7.1-15.8,15.8v61.3h31.5v-61.3C997.3,700.9,990.2,693.8,981.5,693.8z"/>
				<path fill="#7B9BA5" d="M998.8,772.4h-34.6v-62.8c0-9.5,7.8-17.3,17.3-17.3s17.3,7.8,17.3,17.3V772.4z M967.3,769.3h28.5v-59.7
					c0-7.9-6.4-14.2-14.2-14.2c-7.9,0-14.2,6.4-14.2,14.2V769.3z"/>
			</g>
			<g>
				<g>
					<ellipse fill="#AE8F3A" cx="923.6" cy="696" rx="6.9" ry="9.2"/>
					<path fill="#7B9BA5" d="M923.6,706.7c-4.6,0-8.4-4.8-8.4-10.7s3.8-10.7,8.4-10.7c4.6,0,8.4,4.8,8.4,10.7
						S928.3,706.7,923.6,706.7z M923.6,688.4c-2.9,0-5.3,3.5-5.3,7.6c0,4.2,2.4,7.6,5.3,7.6c2.9,0,5.3-3.5,5.3-7.6
						C929,691.9,926.5,688.4,923.6,688.4z"/>
				</g>
				<g>
					<circle fill="#FFFFFF" cx="923.6" cy="691.1" r="2.7"/>
				</g>
			</g>
			<g>
				<g>
					<ellipse fill="#AE8F3A" cx="981.5" cy="696" rx="6.9" ry="9.2"/>
					<path fill="#7B9BA5" d="M981.5,706.7c-4.6,0-8.4-4.8-8.4-10.7s3.8-10.7,8.4-10.7c4.6,0,8.4,4.8,8.4,10.7
						S986.1,706.7,981.5,706.7z M981.5,688.4c-2.9,0-5.3,3.5-5.3,7.6c0,4.1,2.4,7.6,5.3,7.6c2.9,0,5.3-3.5,5.3-7.6
						C986.9,691.9,984.4,688.4,981.5,688.4z"/>
				</g>
				<g>
					<circle fill="#FFFFFF" cx="981.5" cy="691.1" r="2.7"/>
				</g>
			</g>
		</g>
		<g>
			<g>
				<path fill="#7B9BA5" d="M1004.5,888h-46v-61.5c0-12.7,10.3-23,23-23c12.7,0,23,10.3,23,23V888z M961.6,885h39.9v-58.4
					c0-11-9-20-20-20s-20,9-20,20V885z"/>
			</g>
			<g>
				<path fill="#7B9BA5" d="M946.7,888h-46v-61.5c0-12.7,10.3-23,23-23c12.7,0,23,10.3,23,23V888z M903.7,885h39.9v-58.4
					c0-11-9-20-20-20c-11,0-20,9-20,20V885z"/>
			</g>
			<g>
				<path fill="#1688B0" d="M923.6,809.4c-8.7,0-15.8,7.1-15.8,15.8v61.3h31.5v-61.3C939.4,816.5,932.3,809.4,923.6,809.4z"/>
				<path fill="#7B9BA5" d="M940.9,888h-34.6v-62.8c0-9.5,7.8-17.3,17.3-17.3c9.5,0,17.3,7.8,17.3,17.3V888z M909.4,885h28.5v-59.7
					c0-7.9-6.4-14.2-14.2-14.2c-7.9,0-14.2,6.4-14.2,14.2V885z"/>
			</g>
			<g>
				<path fill="#1688B0" d="M981.5,809.4c-8.7,0-15.8,7.1-15.8,15.8v61.3h31.5v-61.3C997.3,816.5,990.2,809.4,981.5,809.4z"/>
				<path fill="#7B9BA5" d="M998.8,888h-34.6v-62.8c0-9.5,7.8-17.3,17.3-17.3s17.3,7.8,17.3,17.3V888z M967.3,885h28.5v-59.7
					c0-7.9-6.4-14.2-14.2-14.2c-7.9,0-14.2,6.4-14.2,14.2V885z"/>
			</g>
			<g>
				<g>
					<ellipse fill="#AE8F3A" cx="923.6" cy="811.7" rx="6.9" ry="9.2"/>
					<path fill="#7B9BA5" d="M923.6,822.4c-4.6,0-8.4-4.8-8.4-10.7s3.8-10.7,8.4-10.7c4.6,0,8.4,4.8,8.4,10.7
						S928.3,822.4,923.6,822.4z M923.6,804.1c-2.9,0-5.3,3.5-5.3,7.6c0,4.2,2.4,7.6,5.3,7.6c2.9,0,5.3-3.5,5.3-7.6
						C929,807.6,926.5,804.1,923.6,804.1z"/>
				</g>
				<g>
					<circle fill="#FFFFFF" cx="923.6" cy="806.8" r="2.7"/>
				</g>
			</g>
			<g>
				<g>
					<ellipse fill="#AE8F3A" cx="981.5" cy="811.7" rx="6.9" ry="9.2"/>
					<path fill="#7B9BA5" d="M981.5,822.4c-4.6,0-8.4-4.8-8.4-10.7s3.8-10.7,8.4-10.7c4.6,0,8.4,4.8,8.4,10.7
						S986.1,822.4,981.5,822.4z M981.5,804.1c-2.9,0-5.3,3.5-5.3,7.6c0,4.1,2.4,7.6,5.3,7.6c2.9,0,5.3-3.5,5.3-7.6
						C986.9,807.6,984.4,804.1,981.5,804.1z"/>
				</g>
				<g>
					<circle fill="#FFFFFF" cx="981.5" cy="806.8" r="2.7"/>
				</g>
			</g>
		</g>
	</g>
	<g id="center">
		<g>
			<g>
				<path fill="#1688B0" d="M691.2,615.6c-8.7,0-15.8,7.1-15.8,15.8v20h31.5v-20C706.9,622.6,699.9,615.6,691.2,615.6z"/>
				<path fill="#7B9BA5" d="M708.5,652.9h-34.6v-21.6c0-9.5,7.8-17.3,17.3-17.3c9.5,0,17.3,7.8,17.3,17.3V652.9z M676.9,649.8h28.5
					v-18.5c0-7.9-6.4-14.2-14.2-14.2c-7.9,0-14.2,6.4-14.2,14.2V649.8z"/>
			</g>
			<g>
				<path fill="#7B9BA5" d="M714.2,656h-46v-24.3c0-12.7,10.3-23,23-23c12.7,0,23,10.3,23,23V656z M671.2,652.9h39.9v-21.2
					c0-11-9-20-20-20c-11,0-20,9-20,20V652.9z"/>
			</g>
			<g>
				<path fill="#7B9BA5" d="M790.5,656h-46v-24.3c0-12.7,10.3-23,23-23c12.7,0,23,10.3,23,23V656z M747.5,652.9h39.9v-21.2
					c0-11-9-20-20-20c-11,0-20,9-20,20V652.9z"/>
			</g>
			<g>
				<path fill="#7B9BA5" d="M866.8,656h-46v-24.3c0-12.7,10.3-23,23-23c12.7,0,23,10.3,23,23V656z M823.8,652.9h39.9v-21.2
					c0-11-9-20-20-20s-20,9-20,20V652.9z"/>
			</g>
			<g>
				<path fill="#1688B0" d="M767.5,615.6c-8.7,0-15.8,7.1-15.8,15.8v20h31.5v-20C783.3,622.6,776.2,615.6,767.5,615.6z"/>
				<path fill="#7B9BA5" d="M784.8,652.9h-34.6v-21.6c0-9.5,7.8-17.3,17.3-17.3c9.5,0,17.3,7.8,17.3,17.3V652.9z M753.2,649.8h28.5
					v-18.5c0-7.9-6.4-14.2-14.2-14.2c-7.9,0-14.2,6.4-14.2,14.2V649.8z"/>
			</g>
			<g>
				<path fill="#1688B0" d="M843.8,615.6c-8.7,0-15.8,7.1-15.8,15.8v20h31.5v-20C859.6,622.6,852.5,615.6,843.8,615.6z"/>
				<path fill="#7B9BA5" d="M861.1,652.9h-34.6v-21.6c0-9.5,7.8-17.3,17.3-17.3s17.3,7.8,17.3,17.3V652.9z M829.6,649.8h28.5v-18.5
					c0-7.9-6.4-14.2-14.2-14.2c-7.9,0-14.2,6.4-14.2,14.2V649.8z"/>
			</g>
			<g>
				<g>
					<ellipse fill="#AE8F3A" cx="691.2" cy="617.8" rx="6.9" ry="9.2"/>
					<path fill="#7B9BA5" d="M691.2,628.5c-4.6,0-8.4-4.8-8.4-10.7c0-5.9,3.8-10.7,8.4-10.7c4.6,0,8.4,4.8,8.4,10.7
						C699.6,623.7,695.8,628.5,691.2,628.5z M691.2,610.2c-2.9,0-5.3,3.4-5.3,7.6c0,4.1,2.4,7.6,5.3,7.6c2.9,0,5.3-3.5,5.3-7.6
						C696.5,613.7,694.1,610.2,691.2,610.2z"/>
				</g>
				<g>
					<circle fill="#FFFFFF" cx="691.2" cy="612.9" r="2.7"/>
				</g>
			</g>
			<g>
				<g>
					<ellipse fill="#AE8F3A" cx="767.5" cy="617.8" rx="6.9" ry="9.2"/>
					<path fill="#7B9BA5" d="M767.5,628.5c-4.6,0-8.4-4.8-8.4-10.7c0-5.9,3.8-10.7,8.4-10.7c4.6,0,8.4,4.8,8.4,10.7
						C775.9,623.7,772.1,628.5,767.5,628.5z M767.5,610.2c-2.9,0-5.3,3.4-5.3,7.6c0,4.1,2.4,7.6,5.3,7.6c2.9,0,5.3-3.5,5.3-7.6
						C772.8,613.7,770.4,610.2,767.5,610.2z"/>
				</g>
				<g>
					<circle fill="#FFFFFF" cx="767.5" cy="612.9" r="2.7"/>
				</g>
			</g>
			<g>
				<g>
					<ellipse fill="#AE8F3A" cx="843.8" cy="617.8" rx="6.9" ry="9.2"/>
					<path fill="#7B9BA5" d="M843.8,628.5c-4.6,0-8.4-4.8-8.4-10.7c0-5.9,3.8-10.7,8.4-10.7c4.6,0,8.4,4.8,8.4,10.7
						C852.2,623.7,848.4,628.5,843.8,628.5z M843.8,610.2c-2.9,0-5.3,3.4-5.3,7.6c0,4.1,2.4,7.6,5.3,7.6c2.9,0,5.3-3.5,5.3-7.6
						C849.2,613.7,846.7,610.2,843.8,610.2z"/>
				</g>
				<g>
					<circle fill="#FFFFFF" cx="843.8" cy="612.9" r="2.7"/>
				</g>
			</g>
		</g>
		<g>
			<g>
				<path fill="#7B9BA5" d="M714.2,768.2h-46v-67.4c0-12.7,10.3-23,23-23c12.7,0,23,10.3,23,23V768.2z M671.2,765.1h39.9v-64.3
					c0-11-9-20-20-20c-11,0-20,9-20,20V765.1z"/>
			</g>
			<g>
				<path fill="#7B9BA5" d="M790.5,768.2h-46v-67.4c0-12.7,10.3-23,23-23c12.7,0,23,10.3,23,23V768.2z M747.5,765.1h39.9v-64.3
					c0-11-9-20-20-20c-11,0-20,9-20,20V765.1z"/>
			</g>
			<g>
				<path fill="#7B9BA5" d="M866.8,768.2h-46v-67.4c0-12.7,10.3-23,23-23c12.7,0,23,10.3,23,23V768.2z M823.8,765.1h39.9v-64.3
					c0-11-9-20-20-20s-20,9-20,20V765.1z"/>
			</g>
			<g>
				<path fill="#1688B0" d="M691.2,684.6c-8.7,0-15.8,7.1-15.8,15.8V762h31.5v-61.6C706.9,691.7,699.9,684.6,691.2,684.6z"/>
				<path fill="#7B9BA5" d="M708.5,763.6h-34.6v-63.2c0-9.5,7.8-17.3,17.3-17.3c9.5,0,17.3,7.8,17.3,17.3V763.6z M676.9,760.5h28.5
					v-60.1c0-7.9-6.4-14.2-14.2-14.2c-7.9,0-14.2,6.4-14.2,14.2V760.5z"/>
			</g>
			<g>
				<path fill="#1688B0" d="M767.5,684.6c-8.7,0-15.8,7.1-15.8,15.8V762h31.5v-61.6C783.3,691.7,776.2,684.6,767.5,684.6z"/>
				<path fill="#7B9BA5" d="M784.8,763.6h-34.6v-63.2c0-9.5,7.8-17.3,17.3-17.3c9.5,0,17.3,7.8,17.3,17.3V763.6z M753.2,760.5h28.5
					v-60.1c0-7.9-6.4-14.2-14.2-14.2c-7.9,0-14.2,6.4-14.2,14.2V760.5z"/>
			</g>
			<g>
				<path fill="#1688B0" d="M843.8,684.6c-8.7,0-15.8,7.1-15.8,15.8V762h31.5v-61.6C859.6,691.7,852.5,684.6,843.8,684.6z"/>
				<path fill="#7B9BA5" d="M861.1,763.6h-34.6v-63.2c0-9.5,7.8-17.3,17.3-17.3s17.3,7.8,17.3,17.3V763.6z M829.6,760.5h28.5v-60.1
					c0-7.9-6.4-14.2-14.2-14.2c-7.9,0-14.2,6.4-14.2,14.2V760.5z"/>
			</g>
			<g>
				<g>
					<ellipse fill="#AE8F3A" cx="691.2" cy="686.9" rx="6.9" ry="9.2"/>
					<path fill="#7B9BA5" d="M691.2,697.6c-4.6,0-8.4-4.8-8.4-10.7c0-5.9,3.8-10.7,8.4-10.7c4.6,0,8.4,4.8,8.4,10.7
						C699.6,692.8,695.8,697.6,691.2,697.6z M691.2,679.3c-2.9,0-5.3,3.5-5.3,7.6c0,4.2,2.4,7.6,5.3,7.6c2.9,0,5.3-3.5,5.3-7.6
						C696.5,682.8,694.1,679.3,691.2,679.3z"/>
				</g>
				<g>
					<circle fill="#FFFFFF" cx="691.2" cy="682" r="2.7"/>
				</g>
			</g>
			<g>
				<g>
					<ellipse fill="#AE8F3A" cx="767.5" cy="686.9" rx="6.9" ry="9.2"/>
					<path fill="#7B9BA5" d="M767.5,697.6c-4.6,0-8.4-4.8-8.4-10.7c0-5.9,3.8-10.7,8.4-10.7c4.6,0,8.4,4.8,8.4,10.7
						C775.9,692.8,772.1,697.6,767.5,697.6z M767.5,679.3c-2.9,0-5.3,3.5-5.3,7.6c0,4.2,2.4,7.6,5.3,7.6c2.9,0,5.3-3.5,5.3-7.6
						C772.8,682.8,770.4,679.3,767.5,679.3z"/>
				</g>
				<g>
					<circle fill="#FFFFFF" cx="767.5" cy="682" r="2.7"/>
				</g>
			</g>
			<g>
				<g>
					<ellipse fill="#AE8F3A" cx="843.8" cy="686.9" rx="6.9" ry="9.2"/>
					<path fill="#7B9BA5" d="M843.8,697.6c-4.6,0-8.4-4.8-8.4-10.7c0-5.9,3.8-10.7,8.4-10.7c4.6,0,8.4,4.8,8.4,10.7
						C852.2,692.8,848.4,697.6,843.8,697.6z M843.8,679.3c-2.9,0-5.3,3.5-5.3,7.6c0,4.2,2.4,7.6,5.3,7.6c2.9,0,5.3-3.5,5.3-7.6
						C849.2,682.8,846.7,679.3,843.8,679.3z"/>
				</g>
				<g>
					<circle fill="#FFFFFF" cx="843.8" cy="682" r="2.7"/>
				</g>
			</g>
		</g>
		<g>
			<g>
				<path fill="#7B9BA5" d="M714.2,888.6h-46v-62.8c0-12.7,10.3-23,23-23c12.7,0,23,10.3,23,23V888.6z M671.2,885.6h39.9v-59.7
					c0-11-9-20-20-20c-11,0-20,9-20,20V885.6z"/>
			</g>
			<g>
				<path fill="#7B9BA5" d="M790.5,888.6h-46v-62.8c0-12.7,10.3-23,23-23c12.7,0,23,10.3,23,23V888.6z M747.5,885.6h39.9v-59.7
					c0-11-9-20-20-20c-11,0-20,9-20,20V885.6z"/>
			</g>
			<g>
				<path fill="#7B9BA5" d="M866.8,888.6h-46v-62.8c0-12.7,10.3-23,23-23s23,10.3,23,23V888.6z M823.8,885.6h39.9v-59.7
					c0-11-9-20-20-20s-20,9-20,20V885.6z"/>
			</g>
			<g>
				<path fill="#1688B0" d="M691.2,809.7c-8.7,0-15.8,7.1-15.8,15.8v61.6h31.5v-61.6C706.9,816.7,699.9,809.7,691.2,809.7z"/>
				<path fill="#7B9BA5" d="M708.5,888.6h-34.6v-63.2c0-9.5,7.8-17.3,17.3-17.3c9.5,0,17.3,7.8,17.3,17.3V888.6z M676.9,885.6h28.5
					v-60.1c0-7.9-6.4-14.2-14.2-14.2c-7.9,0-14.2,6.4-14.2,14.2V885.6z"/>
			</g>
			<g>
				<path fill="#1688B0" d="M767.5,809.7c-8.7,0-15.8,7.1-15.8,15.8v61.6h31.5v-61.6C783.3,816.7,776.2,809.7,767.5,809.7z"/>
				<path fill="#7B9BA5" d="M784.8,888.6h-34.6v-63.2c0-9.5,7.8-17.3,17.3-17.3c9.5,0,17.3,7.8,17.3,17.3V888.6z M753.2,885.6h28.5
					v-60.1c0-7.9-6.4-14.2-14.2-14.2c-7.9,0-14.2,6.4-14.2,14.2V885.6z"/>
			</g>
			<g>
				<path fill="#1688B0" d="M843.8,809.7c-8.7,0-15.8,7.1-15.8,15.8v61.6h31.5v-61.6C859.6,816.7,852.5,809.7,843.8,809.7z"/>
				<path fill="#7B9BA5" d="M861.1,888.6h-34.6v-63.2c0-9.5,7.8-17.3,17.3-17.3s17.3,7.8,17.3,17.3V888.6z M829.6,885.6h28.5v-60.1
					c0-7.9-6.4-14.2-14.2-14.2c-7.9,0-14.2,6.4-14.2,14.2V885.6z"/>
			</g>
			<g>
				<g>
					<ellipse fill="#AE8F3A" cx="691.2" cy="811.9" rx="6.9" ry="9.2"/>
					<path fill="#7B9BA5" d="M691.2,822.6c-4.6,0-8.4-4.8-8.4-10.7c0-5.9,3.8-10.7,8.4-10.7c4.6,0,8.4,4.8,8.4,10.7
						C699.6,817.8,695.8,822.6,691.2,822.6z M691.2,804.3c-2.9,0-5.3,3.5-5.3,7.6c0,4.1,2.4,7.6,5.3,7.6c2.9,0,5.3-3.5,5.3-7.6
						C696.5,807.8,694.1,804.3,691.2,804.3z"/>
				</g>
				<g>
					<circle fill="#FFFFFF" cx="691.2" cy="807" r="2.7"/>
				</g>
			</g>
			<g>
				<g>
					<ellipse fill="#AE8F3A" cx="767.5" cy="811.9" rx="6.9" ry="9.2"/>
					<path fill="#7B9BA5" d="M767.5,822.6c-4.6,0-8.4-4.8-8.4-10.7c0-5.9,3.8-10.7,8.4-10.7c4.6,0,8.4,4.8,8.4,10.7
						C775.9,817.8,772.1,822.6,767.5,822.6z M767.5,804.3c-2.9,0-5.3,3.5-5.3,7.6c0,4.1,2.4,7.6,5.3,7.6c2.9,0,5.3-3.5,5.3-7.6
						C772.8,807.8,770.4,804.3,767.5,804.3z"/>
				</g>
				<g>
					<circle fill="#FFFFFF" cx="767.5" cy="807" r="2.7"/>
				</g>
			</g>
			<g>
				<g>
					<ellipse fill="#AE8F3A" cx="843.8" cy="811.9" rx="6.9" ry="9.2"/>
					<path fill="#7B9BA5" d="M843.8,822.6c-4.6,0-8.4-4.8-8.4-10.7c0-5.9,3.8-10.7,8.4-10.7c4.6,0,8.4,4.8,8.4,10.7
						C852.2,817.8,848.4,822.6,843.8,822.6z M843.8,804.3c-2.9,0-5.3,3.5-5.3,7.6c0,4.1,2.4,7.6,5.3,7.6c2.9,0,5.3-3.5,5.3-7.6
						C849.2,807.8,846.7,804.3,843.8,804.3z"/>
				</g>
				<g>
					<circle fill="#FFFFFF" cx="843.8" cy="807" r="2.7"/>
				</g>
			</g>
		</g>
	</g>
	<g id="left_1_">
		<g>
			<g>
				<path fill="#7B9BA5" d="M576.5,663.4h-46v-24.3c0-12.7,10.3-23,23-23c12.7,0,23,10.3,23,23V663.4z M533.5,660.4h39.9v-21.2
					c0-11-9-20-20-20c-11,0-20,9-20,20V660.4z"/>
			</g>
			<g>
				<path fill="#7B9BA5" d="M634.4,663.4h-46v-24.3c0-12.7,10.3-23,23-23c12.7,0,23,10.3,23,23V663.4z M591.4,660.4h39.9v-21.2
					c0-11-9-20-20-20s-20,9-20,20V660.4z"/>
			</g>
			<g>
				<path fill="#1688B0" d="M611.3,622.5c8.7,0,15.8,7.1,15.8,15.8v21.9h-31.5v-21.9C595.6,629.5,602.6,622.5,611.3,622.5z"/>
				<path fill="#7B9BA5" d="M628.6,661.7H594v-23.4c0-9.5,7.8-17.3,17.3-17.3s17.3,7.8,17.3,17.3V661.7z M597.1,658.6h28.5v-20.4
					c0-7.9-6.4-14.2-14.2-14.2c-7.9,0-14.2,6.4-14.2,14.2V658.6z"/>
			</g>
			<g>
				<path fill="#1688B0" d="M553.5,622.5c8.7,0,15.8,7.1,15.8,15.8v21.9h-31.5v-21.9C537.7,629.5,544.8,622.5,553.5,622.5z"/>
				<path fill="#7B9BA5" d="M570.8,661.7h-34.6v-23.4c0-9.5,7.8-17.3,17.3-17.3c9.5,0,17.3,7.8,17.3,17.3V661.7z M539.2,658.6h28.5
					v-20.4c0-7.9-6.4-14.2-14.2-14.2c-7.9,0-14.2,6.4-14.2,14.2V658.6z"/>
			</g>
			<g>
				<g>
					<ellipse fill="#AE8F3A" cx="611.3" cy="624.7" rx="6.9" ry="9.2"/>
					<path fill="#7B9BA5" d="M611.3,635.4c-4.6,0-8.4-4.8-8.4-10.7s3.8-10.7,8.4-10.7c4.6,0,8.4,4.8,8.4,10.7S616,635.4,611.3,635.4
						z M611.3,617.1c-2.9,0-5.3,3.5-5.3,7.6c0,4.1,2.4,7.6,5.3,7.6c2.9,0,5.3-3.5,5.3-7.6C616.7,620.5,614.3,617.1,611.3,617.1z"/>
				</g>
				<g>
					<circle fill="#FFFFFF" cx="611.3" cy="619.8" r="2.7"/>
				</g>
			</g>
			<g>
				<g>
					<ellipse fill="#AE8F3A" cx="553.5" cy="624.7" rx="6.9" ry="9.2"/>
					<path fill="#7B9BA5" d="M553.5,635.4c-4.6,0-8.4-4.8-8.4-10.7s3.8-10.7,8.4-10.7c4.6,0,8.4,4.8,8.4,10.7
						S558.1,635.4,553.5,635.4z M553.5,617.1c-2.9,0-5.3,3.5-5.3,7.6c0,4.1,2.4,7.6,5.3,7.6c2.9,0,5.3-3.5,5.3-7.6
						C558.8,620.5,556.4,617.1,553.5,617.1z"/>
				</g>
				<g>
					<circle fill="#FFFFFF" cx="553.5" cy="619.8" r="2.7"/>
				</g>
			</g>
		</g>
		<g>
			<g>
				<path fill="#7B9BA5" d="M576.5,775.8h-46v-64.9c0-12.7,10.3-23,23-23c12.7,0,23,10.3,23,23V775.8z M533.5,772.7h39.9v-61.8
					c0-11-9-20-20-20c-11,0-20,9-20,20V772.7z"/>
			</g>
			<g>
				<path fill="#7B9BA5" d="M634.4,775.8h-46v-64.9c0-12.7,10.3-23,23-23c12.7,0,23,10.3,23,23V775.8z M591.4,772.7h39.9v-61.8
					c0-11-9-20-20-20s-20,9-20,20V772.7z"/>
			</g>
			<g>
				<path fill="#1688B0" d="M611.3,693.8c8.7,0,15.8,7.1,15.8,15.8v61.3h-31.5v-61.3C595.6,700.9,602.6,693.8,611.3,693.8z"/>
				<path fill="#7B9BA5" d="M628.6,772.4H594v-62.8c0-9.5,7.8-17.3,17.3-17.3s17.3,7.8,17.3,17.3V772.4z M597.1,769.3h28.5v-59.7
					c0-7.9-6.4-14.2-14.2-14.2c-7.9,0-14.2,6.4-14.2,14.2V769.3z"/>
			</g>
			<g>
				<path fill="#1688B0" d="M553.5,693.8c8.7,0,15.8,7.1,15.8,15.8v61.3h-31.5v-61.3C537.7,700.9,544.8,693.8,553.5,693.8z"/>
				<path fill="#7B9BA5" d="M570.8,772.4h-34.6v-62.8c0-9.5,7.8-17.3,17.3-17.3c9.5,0,17.3,7.8,17.3,17.3V772.4z M539.2,769.3h28.5
					v-59.7c0-7.9-6.4-14.2-14.2-14.2c-7.9,0-14.2,6.4-14.2,14.2V769.3z"/>
			</g>
			<g>
				<g>
					<ellipse fill="#AE8F3A" cx="611.3" cy="696" rx="6.9" ry="9.2"/>
					<path fill="#7B9BA5" d="M611.3,706.7c-4.6,0-8.4-4.8-8.4-10.7s3.8-10.7,8.4-10.7c4.6,0,8.4,4.8,8.4,10.7S616,706.7,611.3,706.7
						z M611.3,688.4c-2.9,0-5.3,3.5-5.3,7.6c0,4.1,2.4,7.6,5.3,7.6c2.9,0,5.3-3.4,5.3-7.6C616.7,691.9,614.2,688.4,611.3,688.4z"/>
				</g>
				<g>
					<circle fill="#FFFFFF" cx="611.3" cy="691.1" r="2.7"/>
				</g>
			</g>
			<g>
				<g>
					<ellipse fill="#AE8F3A" cx="553.5" cy="696" rx="6.9" ry="9.2"/>
					<path fill="#7B9BA5" d="M553.5,706.7c-4.6,0-8.4-4.8-8.4-10.7s3.8-10.7,8.4-10.7c4.6,0,8.4,4.8,8.4,10.7
						S558.1,706.7,553.5,706.7z M553.5,688.4c-2.9,0-5.3,3.5-5.3,7.6c0,4.1,2.4,7.6,5.3,7.6c2.9,0,5.3-3.4,5.3-7.6
						C558.8,691.9,556.4,688.4,553.5,688.4z"/>
				</g>
				<g>
					<circle fill="#FFFFFF" cx="553.5" cy="691.1" r="2.7"/>
				</g>
			</g>
		</g>
		<g>
			<g>
				<path fill="#7B9BA5" d="M576.5,888h-46v-61.5c0-12.7,10.3-23,23-23c12.7,0,23,10.3,23,23V888z M533.5,885h39.9v-58.4
					c0-11-9-20-20-20c-11,0-20,9-20,20V885z"/>
			</g>
			<g>
				<path fill="#7B9BA5" d="M634.4,888h-46v-61.5c0-12.7,10.3-23,23-23c12.7,0,23,10.3,23,23V888z M591.4,885h39.9v-58.4
					c0-11-9-20-20-20s-20,9-20,20V885z"/>
			</g>
			<g>
				<path fill="#1688B0" d="M611.3,809.4c8.7,0,15.8,7.1,15.8,15.8v61.3h-31.5v-61.3C595.6,816.5,602.6,809.4,611.3,809.4z"/>
				<path fill="#7B9BA5" d="M628.6,888H594v-62.8c0-9.5,7.8-17.3,17.3-17.3s17.3,7.8,17.3,17.3V888z M597.1,885h28.5v-59.7
					c0-7.9-6.4-14.2-14.2-14.2c-7.9,0-14.2,6.4-14.2,14.2V885z"/>
			</g>
			<g>
				<path fill="#1688B0" d="M553.5,809.4c8.7,0,15.8,7.1,15.8,15.8v61.3h-31.5v-61.3C537.7,816.5,544.8,809.4,553.5,809.4z"/>
				<path fill="#7B9BA5" d="M570.8,888h-34.6v-62.8c0-9.5,7.8-17.3,17.3-17.3c9.5,0,17.3,7.8,17.3,17.3V888z M539.2,885h28.5v-59.7
					c0-7.9-6.4-14.2-14.2-14.2c-7.9,0-14.2,6.4-14.2,14.2V885z"/>
			</g>
			<g>
				<g>
					<ellipse fill="#AE8F3A" cx="611.3" cy="811.7" rx="6.9" ry="9.2"/>
					<path fill="#7B9BA5" d="M611.3,822.4c-4.6,0-8.4-4.8-8.4-10.7s3.8-10.7,8.4-10.7c4.6,0,8.4,4.8,8.4,10.7S616,822.4,611.3,822.4
						z M611.3,804.1c-2.9,0-5.3,3.5-5.3,7.6c0,4.1,2.4,7.6,5.3,7.6c2.9,0,5.3-3.4,5.3-7.6C616.7,807.6,614.2,804.1,611.3,804.1z"/>
				</g>
				<g>
					<circle fill="#FFFFFF" cx="611.3" cy="806.8" r="2.7"/>
				</g>
			</g>
			<g>
				<g>
					<ellipse fill="#AE8F3A" cx="553.5" cy="811.7" rx="6.9" ry="9.2"/>
					<path fill="#7B9BA5" d="M553.5,822.4c-4.6,0-8.4-4.8-8.4-10.7s3.8-10.7,8.4-10.7c4.6,0,8.4,4.8,8.4,10.7
						S558.1,822.4,553.5,822.4z M553.5,804.1c-2.9,0-5.3,3.5-5.3,7.6c0,4.1,2.4,7.6,5.3,7.6c2.9,0,5.3-3.4,5.3-7.6
						C558.8,807.6,556.4,804.1,553.5,804.1z"/>
				</g>
				<g>
					<circle fill="#FFFFFF" cx="553.5" cy="806.8" r="2.7"/>
				</g>
			</g>
		</g>
	</g>
	<g id="back_accents">
		<g>
			<g>
				<polygon fill="#AE8F3A" points="897.7,606.8 897.7,606.8 1028.3,606.8 1028.3,615.6 1045.9,598 897.7,598 				"/>
				<path fill="#7B9BA5" d="M1026.8,619.2v-11H896.2v-11.8h153.4L1026.8,619.2z M899.2,605.2h130.6v6.6l12.4-12.4h-143V605.2z"/>
			</g>
			<g>
				<polygon fill="#AE8F3A" points="897.7,668.9 897.7,668.9 1028.3,668.9 1028.3,677.7 1045.9,660.1 897.7,660.1 				"/>
				<path fill="#7B9BA5" d="M1026.8,681.4v-10.9H896.2v-11.8h153.4L1026.8,681.4z M899.2,667.4h130.6v6.6l12.4-12.4h-143V667.4z"/>
			</g>
			<g>
				<polygon fill="#AE8F3A" points="897.7,779.6 897.7,779.6 1028.3,779.6 1028.3,788.4 1045.9,770.8 897.7,770.8 				"/>
				<path fill="#7B9BA5" d="M1026.8,792.1v-10.9H896.2v-11.8h153.4L1026.8,792.1z M899.2,778.1h130.6v6.6l12.4-12.4h-143V778.1z"/>
			</g>
		</g>
		<g>
			<g>
				<polygon fill="#AE8F3A" points="637.3,606.8 637.3,606.8 506.7,606.8 506.7,615.6 489.1,598 637.3,598 				"/>
				<path fill="#7B9BA5" d="M508.2,619.2l-22.8-22.8h153.4v11.8H508.2V619.2z M492.8,599.5l12.4,12.4v-6.6h130.6v-5.7H492.8z"/>
			</g>
			<g>
				<polygon fill="#AE8F3A" points="637.3,668.9 637.3,668.9 506.7,668.9 506.7,677.7 489.1,660.1 637.3,660.1 				"/>
				<path fill="#7B9BA5" d="M508.2,681.4l-22.8-22.8h153.4v11.8H508.2V681.4z M492.8,661.7l12.4,12.4v-6.6h130.6v-5.7H492.8z"/>
			</g>
			<g>
				<polygon fill="#AE8F3A" points="637.3,779.6 637.3,779.6 506.7,779.6 506.7,788.4 489.1,770.8 637.3,770.8 				"/>
				<path fill="#7B9BA5" d="M508.2,792.1l-22.8-22.8h153.4v11.8H508.2V792.1z M492.8,772.4l12.4,12.4v-6.6h130.6v-5.7H492.8z"/>
			</g>
		</g>
	</g>
	<g id="front_accents">
		<g>
			<polygon fill="#AE8F3A" points="915.7,651.4 767.5,651.4 767.5,651.4 619.3,651.4 636.9,668.9 636.9,660.1 767.5,660.1 
				767.5,660.1 898.1,660.1 898.1,668.9 			"/>
			<path fill="#7B9BA5" d="M638.4,672.6l-22.8-22.8h303.7l-22.8,22.8v-11H638.4V672.6z M635.4,658.6h264.2v6.6l12.4-12.4H623
				l12.4,12.4V658.6z"/>
		</g>
		<g>
			<polygon fill="#AE8F3A" points="915.7,762 767.5,762 767.5,762 619.3,762 636.9,779.6 636.9,770.8 767.5,770.8 767.5,770.8 
				898.1,770.8 898.1,779.6 			"/>
			<path fill="#7B9BA5" d="M638.4,783.3l-22.8-22.8h303.7l-22.8,22.8v-11H638.4V783.3z M635.4,769.3h264.2v6.6l12.4-12.4H623
				l12.4,12.4V769.3z"/>
		</g>
		<g id="lines_2_">
			<g>
				<rect x="637.5" y="601.8" fill="#7B9BA5" width="260.2" height="1.5"/>
			</g>
			<g>
				<rect x="638.2" y="664" fill="#7B9BA5" width="260.2" height="1.5"/>
			</g>
			<g>
				<rect x="638.2" y="774.7" fill="#7B9BA5" width="260.2" height="1.5"/>
			</g>
		</g>
	</g>
	<g id="roof">
		<g>
			<polygon fill="#AE8F3A" points="767.5,538.5 611.3,598 767.5,598 923.6,598 			"/>
			<path fill="#7B9BA5" d="M923.6,599.5H611.3l-0.5-3l156.7-59.7l156.7,59.7L923.6,599.5z M619.6,596.4h295.7l-147.9-56.3
				L619.6,596.4z"/>
		</g>
		<g>
			<polygon fill="#D8F0FB" points="767,548.4 637.3,598 767,598 896.6,598 			"/>
			<path fill="#7B9BA5" d="M896.6,599.5H637.3l-0.5-3L767,546.7l130.2,49.8L896.6,599.5z M645.6,596.4h242.8L767,550L645.6,596.4z"
				/>
		</g>
	</g>
	<g id="seashell">
		<g>
			<path fill="#8B6828" d="M768.3,586.6c0,0,12.5-15.6,16-5.9C787.9,590.4,768.3,586.6,768.3,586.6z"/>
		</g>
		<g>
			<path fill="#9E7A2D" d="M767.5,588.4c0,0,1-25.4,12-18.2C790.4,577.5,767.5,588.4,767.5,588.4z"/>
		</g>
		<g>
			<path fill="#8B6828" d="M766.7,586.6c0,0-12.5-15.6-16-5.9C747.1,590.4,766.7,586.6,766.7,586.6z"/>
		</g>
		<g>
			<path fill="#9E7A2D" d="M767.5,588.4c0,0-1-25.4-12-18.2C744.6,577.5,767.5,588.4,767.5,588.4z"/>
		</g>
		<g>
			<path fill="#AE8F3A" d="M767.6,588.2c0,0-15.9-26.3,0-26.3C783.5,561.9,767.6,588.2,767.6,588.2z"/>
		</g>
		<g>
			<path fill="#8B6828" d="M768.2,586.4L768.2,586.4c0,0-0.2,0-0.6,0c-0.4,0-0.6,0-0.6,0v0c-2.2,0.1-6.6,0.9-6.6,4.9
				c3.6,0,5.5,0,6.6,0c1.3,0,1.3,0,1.3,0c1.1,0,3,0,6.6,0C774.8,587.3,770.4,586.5,768.2,586.4z"/>
		</g>
	</g>
	<g id="accents">
		<g>
			<g>
				<line fill="#AE8F3A" x1="516.1" y1="556.6" x2="516.1" y2="579.6"/>
				<rect x="514.5" y="556.6" fill="#7B9BA5" width="3.1" height="23.1"/>
			</g>
			<g>
				<rect x="508.3" y="563.4" fill="#AE8F3A" width="15.6" height="5.7"/>
				<path fill="#7B9BA5" d="M525.4,570.7h-18.6v-8.8h18.6V570.7z M509.8,567.6h12.5V565h-12.5V567.6z"/>
			</g>
		</g>
		<g>
			<g>
				<line fill="#AE8F3A" x1="1018.9" y1="556.6" x2="1018.9" y2="579.6"/>
				<rect x="1017.4" y="556.6" fill="#7B9BA5" width="3.1" height="23.1"/>
			</g>
			<g>
				<rect x="1011.1" y="563.4" fill="#AE8F3A" width="15.6" height="5.7"/>
				<path fill="#7B9BA5" d="M1028.2,570.7h-18.6v-8.8h18.6V570.7z M1012.7,567.6h12.5V565h-12.5V567.6z"/>
			</g>
		</g>
		<g>
			<polygon fill="#AE8F3A" points="767.8,532 767.2,532 755.6,532 761.1,555.4 766.9,555.4 768.1,555.4 773.8,555.4 779.4,532 			
				"/>
			<path fill="#7B9BA5" d="M775,556.9h-15.1l-6.2-26.5h27.6L775,556.9z M762.3,553.9h10.3l4.8-20.4h-19.9L762.3,553.9z"/>
		</g>
	</g>
	<g id="lines_3_">
		<g>
			<g>
				<rect x="897.7" y="610.6" fill="#7B9BA5" width="130.6" height="1.5"/>
			</g>
			<g>
				<rect x="897.7" y="672.8" fill="#7B9BA5" width="130.6" height="1.5"/>
			</g>
			<g>
				<rect x="897.7" y="783.5" fill="#7B9BA5" width="130.6" height="1.5"/>
			</g>
		</g>
		<g>
			<g>
				<rect x="506.7" y="610.6" fill="#7B9BA5" width="130.6" height="1.5"/>
			</g>
			<g>
				<rect x="506.7" y="672.8" fill="#7B9BA5" width="130.6" height="1.5"/>
			</g>
			<g>
				<rect x="506.7" y="783.5" fill="#7B9BA5" width="130.6" height="1.5"/>
			</g>
		</g>
	</g>
	<g id="back_2_">
		<g>
			<polygon fill="#5A95AA" points="505.2,874.2 505.2,871.2 52.4,871.2 52.4,697.9 35.5,697.9 52.4,691.5 52.4,683.5 73.3,683.5 
				142.8,657 141.4,650.8 155.8,650.8 154.2,657.7 221.8,683.5 244,683.5 274.1,697.6 505.2,697.6 505.2,694.5 274.8,694.5 
				244.7,680.4 222.4,680.4 157.8,655.8 159.7,647.7 137.5,647.7 139.3,655.1 72.8,680.4 49.3,680.4 49.3,689.4 19,701 49.3,701 
				49.3,874.2 			"/>
		</g>
		<g>
			<polygon fill="#5A95AA" points="1485.6,689.4 1485.6,680.4 1462.2,680.4 1395.7,655.1 1397.5,647.7 1375.3,647.7 1377.2,655.8 
				1312.6,680.4 1290.3,680.4 1260.2,694.5 1028.3,694.5 1028.3,697.6 1260.8,697.6 1291,683.5 1313.1,683.5 1380.8,657.7 
				1379.2,650.8 1393.6,650.8 1392.1,657 1461.4,683.4 1461.6,683.5 1482.6,683.5 1482.6,691.5 1499.4,697.9 1482.6,697.9 
				1482.6,871.2 1028.3,871.2 1028.3,874.2 1485.6,874.2 1485.6,701 1516,701 			"/>
		</g>
	</g>
	<g>
		<path fill="#5A95AA" d="M941,888.4l-0.8-3.1H508.3V790l-19.1-19.1h19.1v-91.5l-19.1-19.1h19.1v-43L489.1,598h19.1v-17.6h129v-11.3
			H652v-9.9l-1.4-2.7c-0.3-0.6-0.6-1.2-0.8-1.7l-0.2-0.3c-3.1-3.8-8.6-12.2-11-25l-0.3-1.4c0-0.3-0.1-0.6-0.1-0.8l-0.1-0.4
			c-0.1-0.6-0.2-1.2-0.2-1.7c0-0.4-0.1-0.9-0.1-1.3c-0.1-0.6-0.1-1.3-0.2-1.9l0-0.3c0-0.3,0-0.6-0.1-0.9c-0.1-1.1-0.1-2.1-0.1-3.2
			h11.2v-17.2h4.7v17.2h6.5l0.4-0.4c5.1-4.7,11.6-9.1,19.4-13.1l0.8-0.4l0-0.9c0-4.2,0.1-8.2,0.1-12.1l0-0.8l-0.7-0.5
			c-6.5-4.5-10.2-7.7-10.3-7.8c0.1-0.1,3.6-4.3,10.8-10l0.6-0.4l0-0.7c3.2-85.9,17.9-101.8,33.4-118.7c4.5-4.9,9.1-9.9,13.4-16.7
			c7.4-11.8,12.2-19.3,14.9-23.5l1.5-2.4h-3.7v-6.8h5.9v-48.6L746,253c-3.7-3.9-6-7.3-6-7.4c0-0.3,0.9-6.5,6.2-11.6l0.5-0.4v-21.9
			c0-2.6,2.3-5.3,6.2-7.2l0.8-0.4l0-0.9c0.1-4.2,0.6-9.2,2-13.6c0.9-2.8,2.1-5.3,3.9-7.3c0.6-0.7,1.3-1.2,2-1.8l0.7-0.5v-16.7H761
			v-3h-3.9v-1.5h5.2v-19.1l-0.2-0.4c-0.1-0.2-0.2-0.4-0.2-0.5c0-1,2.2-2.5,5.6-2.5h3.1v-2.7v-17.4h3.7V110h-3.7V96.6h-6.1V110h-3.7
			v6.1h3.7v17.4c-3.3,0.8-5.6,2.8-5.6,5.2c0,0.5,0.1,1.1,0.4,1.6v15.3H754v7.6h3.9v3h1.3v12.1c-0.7,0.5-1.3,1.1-1.9,1.7
			c-1.1,1.3-2.1,2.7-2.9,4.4c-2.6,5.3-3.5,12.1-3.8,17.6c-4.6,2.4-7.1,5.8-7.1,9.5v20.6c-5.9,6-6.6,12.9-6.6,13l-0.1,1.1l0.6,0.9
			c0.1,0.1,2.3,3.6,6.1,7.6v44.4h-5.9v12.9h1.2c-2.8,4.5-7.2,11.3-13.4,21.2c-4.1,6.6-8.7,11.5-13,16.3
			c-15.9,17.3-31,33.5-34.2,119.9c-7.1,5.7-10.7,10-10.8,10l-1.9,2.3l2.2,1.9c0,0,3.6,3.1,9.9,7.5c0,3.4-0.1,6.9-0.1,10.4
			c-7.4,3.8-13.8,8.1-18.8,12.7h-2.3v-17.2h-10.8v17.2h-11.2v3.1c0,1.1,0,2.2,0.1,3.4c0,0.3,0,0.6,0.1,1l0,0.3c0,0.7,0.1,1.3,0.2,2
			c0,0.5,0.1,0.9,0.1,1.4c0.1,0.6,0.2,1.2,0.2,1.8l0.1,0.4c0,0.3,0.1,0.6,0.2,1l0.4,2.6h0c2.6,12.6,8,20.9,11.2,24.9
			c0.3,0.6,0.5,1.1,0.8,1.7l1.1,2.1v6.1h-14.7v11.3H519.1v-5.2h7.8v-11.8h-7.8V555H513v5.3h-7.8v11.8h7.8v5.2h-7.8v17.6h-23.5
			l23.5,23.5v38.7h-23.5l23.5,23.5v87.2h-23.5l23.5,23.5v97.1H941z M508.3,569.2v-5.7h15.6v5.7h-7.8H508.3z"/>
	</g>
	<g>
		<path fill="#FFFFFF" d="M1053.2,657.1h-23.5v-38.7l23.5-23.5h-23.5v-17.6h-7.8v-5.2h7.8v-11.8h-7.8V555h-6.1v5.3h-7.8v11.8h7.8
			v5.2H900.7v-11.3H886v-6.1l1.5-3c0.1-0.3,0.3-0.6,0.4-0.9c3.2-4,8.7-12.3,11.2-24.9l0.5-2.7c0-0.3,0.1-0.6,0.1-0.8l0.1-0.4
			c0.1-0.6,0.2-1.3,0.2-1.9c0-0.4,0.1-0.9,0.1-1.4c0.1-0.7,0.1-1.4,0.2-2.1l0-0.2c0-0.3,0-0.7,0.1-1c0.1-1.1,0.1-2.2,0.1-3.4v-3.1
			h-11.2v-17.2h-10.8v17.2h-2.3c-5.1-4.6-11.4-8.9-18.8-12.7c0-3.6,0-7.1-0.1-10.4c6.2-4.3,9.7-7.4,9.9-7.5l2.2-1.9l-1.9-2.3
			c-0.2-0.2-3.7-4.4-10.8-10.1c-3.3-86.3-18.3-102.6-34.2-119.8c-4.4-4.7-8.9-9.7-13-16.3c-6.2-9.9-10.5-16.8-13.4-21.2h1.2v-12.9
			h-5.9v-44.4c3.7-3.9,5.9-7.2,6.1-7.6l0.6-0.9l-0.1-1.1c0-0.1-0.8-7-6.6-13v-20.6c0-3.7-2.5-7-7.1-9.5c-0.3-7.2-1.7-16.6-6.7-22
			c-0.6-0.6-1.2-1.2-1.9-1.7v-12.1h1.3v-3h3.9v-7.6h-5.2v-15.3c0.3-0.5,0.4-1.1,0.4-1.6c0-2.4-2.3-4.5-5.6-5.2v-17.4h3.7V110h-3.7
			V96.6h-6.1V110h-3.7v6.1h3.7v17.4c-2,0.5-3.7,1.5-4.7,2.7h7.7c3.4,0,5.6,1.5,5.6,2.5c0,0.1-0.1,0.3-0.2,0.5l-0.2,0.4v19.1h5.2v1.5
			H774v3h-1.3V180l0.7,0.5c0.8,0.5,1.4,1.1,2,1.8c4.5,4.9,5.7,14.1,5.9,20.9l0,0.9l0.8,0.4c3.9,1.9,6.2,4.5,6.2,7.2v21.9l0.5,0.4
			c5.4,5.2,6.2,11.5,6.2,11.6c-0.1,0.2-2.3,3.5-6,7.4l-0.6,0.7v48.6h5.9v6.8h-3.7l1.5,2.4c2.7,4.2,7.4,11.7,14.9,23.5
			c4.3,6.8,8.9,11.9,13.4,16.7c15.6,16.9,30.3,32.8,33.4,118.6l0,0.7l0.6,0.4c7.2,5.7,10.7,9.9,10.9,10.1l0,0
			c-0.2,0.1-3.8,3.3-10.4,7.8l-0.6,0.5l0,0.7c0.1,3.9,0.1,8,0.1,12.1l0,0.9l0.8,0.4c7.8,3.9,14.3,8.3,19.4,13.1l0.4,0.4h6.5v-17.2
			h4.7v17.2h11.2c0,1.1,0,2.1-0.1,3.2c0,0.3,0,0.6-0.1,1l0,0.2c0,0.7-0.1,1.3-0.2,2c0,0.4-0.1,0.9-0.1,1.3c-0.1,0.6-0.2,1.2-0.2,1.8
			l-0.1,0.4c0,0.3-0.1,0.5-0.1,0.7l-0.3,1.4c-2.4,13.3-8.5,21.9-11,25l-0.2,0.3c-0.1,0.3-0.3,0.7-0.5,1l-0.2,0.3l-1.6-3.2v16.3h14.7
			v11.3h129V598h19.1l-19.1,19.1v43h19.1l-19.1,19.1v91.5h19.1l-19.1,19.1v95.3h-86.5l0.8,3.1h88.8v-97.1l23.5-23.5h-23.5v-87.2
			L1053.2,657.1z M1011.1,569.2v-5.7h15.6v5.7h-7.8H1011.1z"/>
	</g>
	<g>
		<g>
			<path fill="#FFFFFF" d="M714.2,466.2c0,0,0.3-0.3,1-0.7c0.7-0.4,1.7-1,3-1.7c1.3-0.7,3-1.4,4.9-2.2c1-0.4,2-0.7,3.1-1.1
				c1.1-0.3,2.3-0.7,3.5-1.1c1.2-0.3,2.5-0.7,3.8-1c1.3-0.3,2.7-0.6,4.2-0.9c2.9-0.6,5.9-1.1,9.1-1.5c1.6-0.2,3.2-0.4,4.8-0.5
				c1.6-0.2,3.3-0.3,5-0.4c3.3-0.2,6.7-0.3,10.1-0.4c1.8,0,3.4,0.1,5.1,0.1c1.7,0,3.3,0.1,5,0.2c3.4,0.1,6.6,0.5,9.8,0.8
				c3.2,0.4,6.2,0.9,9.1,1.4c2.9,0.5,5.6,1.2,8,1.9c2.5,0.7,4.7,1.5,6.6,2.3c1.9,0.8,3.6,1.6,4.9,2.3c2.6,1.4,3.9,2.6,3.9,2.6
				s-0.4-0.2-1.1-0.5c-0.7-0.3-1.8-0.7-3.2-1.2c-1.4-0.4-3.1-0.9-5.1-1.4c-2-0.5-4.2-0.9-6.7-1.4c-1.2-0.2-2.5-0.4-3.8-0.6
				c-1.3-0.2-2.7-0.4-4.1-0.5c-2.8-0.3-5.8-0.5-8.9-0.8c-1.6-0.1-3.1-0.2-4.7-0.3c-1.6-0.1-3.2-0.1-4.8-0.2c-1.6-0.1-3.3-0.1-5-0.1
				c-1.7,0-3.4-0.1-5,0c-3.3,0-6.7,0-9.9,0.2c-3.3,0.1-6.5,0.3-9.6,0.5c-3.1,0.3-6.1,0.5-8.9,0.9c-1.4,0.2-2.8,0.4-4.1,0.6
				c-1.3,0.2-2.6,0.4-3.8,0.6c-2.4,0.5-4.7,0.9-6.7,1.3c-2,0.5-3.7,0.9-5.1,1.3c-1.4,0.4-2.5,0.8-3.2,1.1
				C714.6,466,714.2,466.2,714.2,466.2z"/>
		</g>
		<g>
			<path fill="#FFFFFF" d="M731.4,452.6c0,0,0.2-0.2,0.7-0.4c0.5-0.2,1.2-0.6,2.1-1c0.9-0.4,2.1-0.8,3.4-1.2
				c0.7-0.2,1.4-0.4,2.1-0.7c0.8-0.2,1.6-0.4,2.4-0.6c0.8-0.2,1.7-0.4,2.6-0.6c0.9-0.2,1.8-0.3,2.8-0.5c1-0.2,2-0.3,3-0.5
				c1-0.2,2.1-0.2,3.1-0.3c1.1-0.1,2.1-0.2,3.2-0.3c1.1-0.1,2.2-0.2,3.3-0.2c2.2-0.1,4.5-0.1,6.8-0.2c2.4,0,4.5,0.1,6.8,0.2
				c1.1,0,2.2,0.1,3.3,0.2c1.1,0.1,2.2,0.2,3.3,0.3c2.1,0.2,4.2,0.4,6.1,0.8c1.9,0.3,3.8,0.6,5.4,1.1c1.7,0.4,3.2,0.8,4.5,1.3
				c1.3,0.4,2.5,0.9,3.4,1.3c0.9,0.4,1.6,0.8,2.1,1c0.5,0.2,0.7,0.4,0.7,0.4s-0.3-0.1-0.8-0.2c-0.5-0.1-1.3-0.3-2.3-0.4
				c-1-0.2-2.2-0.3-3.5-0.4c-1.3-0.2-2.9-0.2-4.5-0.4c-1.7-0.2-3.5-0.1-5.4-0.3c-1.9-0.1-3.9-0.1-6-0.2c-1,0-2.1-0.1-3.1-0.1
				c-1.1,0-2.2,0-3.3,0c-2.2,0-4.5-0.1-6.7,0c-2.2,0-4.5,0-6.6,0.1c-2.2,0-4.3,0.1-6.4,0.1c-2.1,0-4.1,0.1-6,0.2
				c-1.9,0.1-3.7,0.2-5.4,0.3c-1.7,0.1-3.2,0.2-4.6,0.4c-1.4,0.1-2.5,0.3-3.5,0.4C732.5,452.4,731.4,452.6,731.4,452.6z"/>
		</g>
		<g>
			<path fill="#FFFFFF" d="M741.7,455.4c0,0,0.2-0.1,0.5-0.3c0.4-0.2,0.9-0.5,1.6-0.8c0.7-0.4,1.6-0.7,2.6-1c1-0.4,2.2-0.7,3.5-1
				c1.3-0.3,2.7-0.6,4.2-0.8c1.5-0.3,3.1-0.4,4.7-0.6c1.7-0.2,3.4-0.3,5.1-0.3c0.9,0,1.7,0,2.6-0.1c0.5,0,0.8,0,1.4,0l1.3,0
				c1.7,0,3.5,0.1,5.2,0.2c1.7,0.1,3.5,0.3,5.1,0.5c1.7,0.2,3.2,0.5,4.7,0.7c1.5,0.2,2.9,0.6,4.2,0.9c1.3,0.3,2.5,0.6,3.5,0.9
				c1,0.3,1.9,0.6,2.7,0.9c0.7,0.3,1.3,0.5,1.7,0.7c0.4,0.2,0.6,0.3,0.6,0.3s-0.9-0.1-2.4-0.1c-1.5-0.1-3.7-0.2-6.3-0.2
				c-1.3-0.1-2.7,0-4.2-0.1c-1.5,0-3-0.1-4.7,0c-3.2,0-6.7,0-10.1,0l-1.3,0l-1.2,0c-0.9,0-1.7,0-2.6,0c-1.7,0-3.4-0.1-5,0
				c-1.6,0-3.2,0-4.6,0c-1.5,0-2.9,0-4.2,0c-1.3,0-2.5,0.1-3.5,0.1c-1,0.1-2,0.1-2.7,0.1c-0.8,0.1-1.4,0.1-1.8,0.2
				C742,455.3,741.7,455.4,741.7,455.4z"/>
		</g>
	</g>
	<g>
		<path fill="#FFFFFF" d="M787.7,244.2c-0.5-0.6-1.2-1.2-2-1.8c-0.8-0.6-1.7-1.3-2.8-1.8c-1-0.6-2.1-1.1-3.3-1.6
			c-1.2-0.5-2.5-0.9-3.8-1.2c-1.3-0.3-2.7-0.6-4.1-0.7c0.4,0,0.7,0,1.1,0c0.7,0,1.3,0,1.9,0c0.6,0,1.2,0,1.7,0.1
			c1.1,0,2,0.1,2.6,0.2c0.6,0.1,1,0.1,1,0.1s-0.1-0.1-0.2-0.2c-0.2-0.1-0.4-0.4-0.7-0.6c-0.3-0.2-0.7-0.5-1.1-0.7
			c-0.4-0.2-0.9-0.6-1.5-0.8c-0.5-0.2-1.1-0.5-1.8-0.7c-0.6-0.2-1.3-0.4-2-0.6c-0.6-0.1-1.1-0.2-1.7-0.3c0.2,0,0.4,0,0.6,0
			c0.4,0,0.9,0.1,1.3,0.1c0.9,0.1,1.7,0,2.5,0.1c0.8,0.1,1.6,0.1,2.2,0.2c0.7,0.1,1.3,0.2,1.9,0.3c0.6,0.1,1.1,0.2,1.5,0.4
			c0.4,0.1,0.7,0.2,0.9,0.3c0.2,0.1,0.3,0.2,0.3,0.2s-0.1-0.1-0.3-0.3c-0.2-0.2-0.5-0.5-0.9-0.8c-0.4-0.3-0.9-0.7-1.4-1
			c-0.5-0.4-1.2-0.7-1.9-1c-0.7-0.4-1.5-0.6-2.3-0.9c-0.8-0.3-1.7-0.5-2.6-0.7c-0.4-0.1-0.9-0.2-1.4-0.3c-0.5-0.1-0.9-0.1-1.4-0.1
			c-0.9-0.1-1.8-0.1-2.8-0.1c-1,0.1-1.9,0.1-2.8,0.2c-0.5,0-0.9,0.1-1.4,0.2c-0.5,0.1-0.9,0.2-1.4,0.3c-0.4,0.1-0.9,0.1-1.3,0.3
			c-0.4,0.1-0.8,0.3-1.2,0.4c-0.4,0.1-0.8,0.3-1.2,0.4c-0.4,0.2-0.7,0.3-1.1,0.5c-0.3,0.2-0.7,0.3-1,0.5c-0.3,0.2-0.6,0.4-0.9,0.5
			c-0.6,0.3-1,0.7-1.4,1c-0.4,0.3-0.7,0.6-0.9,0.8c-0.2,0.2-0.3,0.3-0.3,0.3s0.5-0.2,1.3-0.4c0.4-0.1,0.9-0.2,1.5-0.3
			c0.6-0.1,1.2-0.2,1.9-0.3c0.7-0.1,1.4-0.2,2.2-0.3c0.8-0.1,1.6-0.2,2.5-0.2c0.8,0,1.7-0.1,2.6-0.1c-0.2,0-0.3,0-0.5,0.1
			c-0.7,0.2-1.4,0.3-2,0.5c-0.6,0.2-1.2,0.4-1.8,0.7c-0.5,0.3-1,0.5-1.5,0.8c-0.4,0.3-0.8,0.5-1.1,0.8c-0.3,0.3-0.5,0.5-0.7,0.7
			c-0.2,0.2-0.2,0.3-0.2,0.3s0.1,0,0.3-0.1c0.2-0.1,0.4-0.1,0.7-0.1c0.3-0.1,0.7,0,1.1-0.1c0.4,0,0.9,0,1.5-0.1c0.5,0,1.1,0,1.7,0
			c0.6,0,1.2,0,1.8,0c-0.3,0-0.6,0-0.9,0.1c-0.7,0.1-1.4,0.2-2.1,0.3c-0.7,0.1-1.4,0.2-2,0.4c-1.3,0.3-2.6,0.8-3.8,1.2
			c-0.6,0.3-1.2,0.5-1.7,0.7c-0.6,0.3-1.1,0.6-1.6,0.8c-0.5,0.3-1,0.6-1.5,0.9c-0.5,0.3-0.9,0.6-1.3,0.9c-0.8,0.6-1.5,1.2-2,1.8
			c-0.6,0.5-1,1-1.3,1.4c-0.3,0.3-0.4,0.6-0.4,0.6s0.2-0.1,0.5-0.4c0.3-0.2,0.8-0.5,1.3-0.9c0.6-0.3,1.3-0.7,2.1-1.1
			c0.8-0.4,1.8-0.7,2.8-1.1c0.5-0.2,1-0.3,1.6-0.5c0.6-0.1,1.1-0.3,1.7-0.4c1.2-0.3,2.4-0.5,3.7-0.7c1.3-0.2,2.6-0.3,4-0.4
			c1.4-0.1,2.7-0.1,4.1-0.2c0.7,0,1.4,0,2.1,0c0.7,0,1.4,0,2.1,0.1c0.7,0,1.3,0.1,2,0.1c0.7,0.1,1.3,0.1,2,0.2
			c1.3,0.2,2.5,0.4,3.7,0.6c0.6,0.1,1.2,0.3,1.7,0.4c0.6,0.1,1.1,0.3,1.6,0.5c1,0.3,2,0.7,2.8,1.1c0.8,0.4,1.5,0.8,2.1,1.2
			c0.6,0.4,1,0.7,1.3,1c0.3,0.2,0.5,0.4,0.5,0.4S788.8,245.4,787.7,244.2z"/>
	</g>
	<g>
		<path fill="#FFFFFF" d="M661.3,521c0,0,0.6-0.9,2-2.3c1.4-1.3,3.5-3.2,6.3-5c1.4-0.9,2.9-1.9,4.6-2.9c0.8-0.5,1.7-0.9,2.6-1.4
			c0.9-0.5,1.8-0.9,2.7-1.4c1.9-0.9,3.8-1.8,5.8-2.7c2-0.9,4.1-1.7,6.1-2.5c2.1-0.7,4.2-1.5,6.2-2.2c2-0.7,4.1-1.4,6.1-2
			c2-0.6,3.9-1.2,5.7-1.7c1.8-0.5,3.6-1,5.2-1.3c1.6-0.3,3.1-0.7,4.4-0.9c1.3-0.2,2.5-0.4,3.5-0.5c1-0.1,1.7-0.2,2.2-0.2
			c0.5,0,0.8,0,0.8,0s-0.3,0-0.8,0.1c-0.5,0.1-1.3,0.2-2.2,0.4c-0.9,0.2-2.1,0.4-3.4,0.8c-1.3,0.3-2.8,0.8-4.3,1.2
			c-1.6,0.4-3.3,1-5.1,1.5c-1.8,0.5-3.7,1.2-5.6,1.8c-2,0.6-4,1.3-6,2.1c-2,0.7-4.1,1.5-6.2,2.3c-2.1,0.8-4.1,1.5-6.1,2.4
			c-2,0.8-3.9,1.7-5.8,2.6c-1.9,0.9-3.6,1.7-5.3,2.6c-1.7,0.9-3.2,1.7-4.6,2.6c-1.4,0.9-2.7,1.7-3.8,2.4c-1.1,0.8-2,1.5-2.8,2.1
			C662,520.1,661.3,521,661.3,521z"/>
	</g>
	<g>
		<path fill="#FFFFFF" d="M873.7,521c0,0-0.7-0.8-2.2-2.1c-0.7-0.6-1.7-1.3-2.8-2.1c-1.1-0.8-2.4-1.6-3.8-2.4
			c-1.4-0.9-3-1.7-4.6-2.6c-1.7-0.9-3.5-1.7-5.3-2.6c-1.9-0.9-3.8-1.7-5.8-2.6c-2-0.8-4-1.6-6.1-2.4c-2.1-0.8-4.1-1.5-6.2-2.3
			c-2-0.8-4.1-1.5-6-2.1c-2-0.6-3.8-1.3-5.6-1.8c-1.8-0.5-3.5-1.1-5.1-1.5c-1.6-0.4-3-0.9-4.3-1.2c-1.3-0.3-2.4-0.6-3.4-0.8
			c-0.9-0.2-1.7-0.3-2.2-0.4c-0.5-0.1-0.8-0.1-0.8-0.1s0.3,0,0.8,0c0.5,0,1.3,0.1,2.2,0.2c1,0.1,2.1,0.3,3.5,0.5
			c1.3,0.2,2.8,0.5,4.4,0.9c1.6,0.3,3.4,0.8,5.2,1.3c1.9,0.4,3.8,1,5.7,1.7c2,0.6,4,1.3,6.1,2c2.1,0.7,4.1,1.4,6.2,2.2
			c2.1,0.8,4.1,1.6,6.1,2.5c2,0.8,3.9,1.8,5.8,2.7c0.9,0.5,1.8,0.9,2.7,1.4c0.9,0.5,1.7,1,2.6,1.4c1.6,1,3.2,1.9,4.6,2.9
			c2.8,1.9,4.9,3.7,6.3,5C873.1,520.1,873.7,521,873.7,521z"/>
	</g>
	<g>
		<ellipse fill="#FFFFFF" cx="767.5" cy="305.8" rx="12.4" ry="1.8"/>
	</g>
	<g>
		<rect x="765.5" y="157.2" fill="#FFFFFF" width="4.1" height="7.6"/>
	</g>
	<g>
		<ellipse fill="#FFFFFF" cx="767.5" cy="138.2" rx="2" ry="1.8"/>
	</g>
	<g>
		<polyline fill="#FFFFFF" points="756.3,532.1 778.7,532.1 776.5,536.9 758.5,536.9 		"/>
	</g>
	<g>
		<polygon fill="#FFFFFF" points="757.2,543.7 660.6,587.3 757.6,548.4 		"/>
	</g>
	<g>
		<polygon fill="#FFFFFF" points="777.7,543.7 874.4,587.3 777.3,548.4 		"/>
	</g>
	<g>
		<ellipse fill="#FFFFFF" cx="767.5" cy="566.7" rx="3.9" ry="2.5"/>
	</g>
	<g>
		<ellipse fill="#FFFFFF" cx="767.6" cy="588.6" rx="2.6" ry="1.3"/>
	</g>
	<g>
		<g>
			<g>
				<polygon fill="#FFFFFF" points="699.1,652.9 766.7,656 835.9,652.9 				"/>
			</g>
			<g>
				<polygon fill="#FFFFFF" points="699.1,659.1 835.9,659.1 766.7,656 				"/>
			</g>
		</g>
		<g>
			<g>
				<polygon fill="#FFFFFF" points="699.1,763.5 766.7,766.6 835.9,763.5 				"/>
			</g>
			<g>
				<polygon fill="#FFFFFF" points="699.1,769.7 835.9,769.7 766.7,766.6 				"/>
			</g>
		</g>
		<g>
			<g>
				<g>
					<polygon fill="#FFFFFF" points="527.5,661.3 568.4,664.4 610.3,661.3 					"/>
				</g>
				<g>
					<polygon fill="#FFFFFF" points="527.5,667.4 610.3,667.4 568.4,664.4 					"/>
				</g>
			</g>
			<g>
				<g>
					<polygon fill="#FFFFFF" points="527.5,599.5 568.4,602.5 610.3,599.5 					"/>
				</g>
				<g>
					<polygon fill="#FFFFFF" points="527.5,605.6 610.3,605.6 568.4,602.5 					"/>
				</g>
			</g>
			<g>
				<g>
					<polygon fill="#FFFFFF" points="527.5,771.9 568.4,775 610.3,771.9 					"/>
				</g>
				<g>
					<polygon fill="#FFFFFF" points="527.5,778.1 610.3,778.1 568.4,775 					"/>
				</g>
			</g>
		</g>
		<g>
			<g>
				<g>
					<polygon fill="#FFFFFF" points="1007.5,661.3 966.5,664.4 924.6,661.3 					"/>
				</g>
				<g>
					<polygon fill="#FFFFFF" points="1007.5,667.4 924.6,667.4 966.5,664.4 					"/>
				</g>
			</g>
			<g>
				<g>
					<polygon fill="#FFFFFF" points="1007.5,599.5 966.5,602.5 924.6,599.5 					"/>
				</g>
				<g>
					<polygon fill="#FFFFFF" points="1007.5,605.6 924.6,605.6 966.5,602.5 					"/>
				</g>
			</g>
			<g>
				<g>
					<polygon fill="#FFFFFF" points="1007.5,771.9 966.5,775 924.6,771.9 					"/>
				</g>
				<g>
					<polygon fill="#FFFFFF" points="1007.5,778.1 924.6,778.1 966.5,775 					"/>
				</g>
			</g>
		</g>
	</g>
	<g>
		<g>
			<g>
				<g>
					<polygon fill="#FFFFFF" points="106.2,703.2 147.1,706.9 189,703.2 					"/>
				</g>
				<g>
					<polygon fill="#FFFFFF" points="106.2,710.5 189,710.5 147.1,706.9 					"/>
				</g>
			</g>
			<g>
				<g>
					<polygon fill="#FFFFFF" points="106.2,779.3 147.1,782.9 189,779.3 					"/>
				</g>
				<g>
					<polygon fill="#FFFFFF" points="106.2,786.6 189,786.6 147.1,782.9 					"/>
				</g>
			</g>
		</g>
		<g>
			<g>
				<g>
					<polygon fill="#FFFFFF" points="1429,703.2 1388.1,706.9 1346.1,703.2 					"/>
				</g>
				<g>
					<polygon fill="#FFFFFF" points="1429,710.5 1346.1,710.5 1388.1,706.9 					"/>
				</g>
			</g>
			<g>
				<g>
					<polygon fill="#FFFFFF" points="1429,779.3 1388.1,782.9 1346.1,779.3 					"/>
				</g>
				<g>
					<polygon fill="#FFFFFF" points="1429,786.6 1346.1,786.6 1388.1,782.9 					"/>
				</g>
			</g>
		</g>
	</g>
</g>
</svg>
