<?xml version="1.0" encoding="utf-8"?>
<!-- Generator: Adobe Illustrator 18.0.0, SVG Export Plug-In . SVG Version: 6.00 Build 0)  -->
<!DOCTYPE svg PUBLIC "-//W3C//DTD SVG 1.1//EN" "http://www.w3.org/Graphics/SVG/1.1/DTD/svg11.dtd">
<svg version="1.1" id="Layer_1" xmlns="http://www.w3.org/2000/svg" xmlns:xlink="http://www.w3.org/1999/xlink" x="0px" y="0px"
	 viewBox="0 0 1440 900" enable-background="new 0 0 1440 900" xml:space="preserve">
<path fill="#4F9FB5" d="M1439,900l0-58.3c0,0-3-3.3-2.4-3.3s-66.6,3.3-81.9,3.3c-15.3,0-96-22.7-114.7-22.7s-23.3,7.3-36,7.3
	s-30-12-43.3-12c-13.3,0-39.3,7.3-54.7,7.3s-54.7-34.7-76.7-38c-22-3.4-36.7,12-50.7,12.7c-14,0.7-27.1-25.4-27.1-25.4l0,0
	c-1.9-5.7-4-11.3-6.2-16.9c-4.3-10.8-11.3-16.5-22.8-17.9c-11.9-1.5-23.5-4.5-35-7.8c-24-6.9-48.4,34-73.6,33.7
	c-10.1-0.1-20.3-1.1-30.4-2.1c-24.8-2.4-49.1-9.2-74.3-8c-3.7,0.2-7.8-0.9-9.5-4.5c-3.7-8.1-10.5-9-18.1-9.6
	c-8.2-0.6-16.8-0.2-24.3-4.7c-4.2-2.5-8.7-4.2-13.4-5.2c-7-1.5-13.9-3.4-20-7.5c-9.5-6.4-18.9-13-27.1-21.1
	c-1.9-1.9-4.1-2.5-6.8-2.5c-20.3,0.2-40.7,0.2-61,0.3c-2.5,0-5,0.3-7.5,0.5c-19.4,1.3-38.6,4.9-58.2,3.5
	c-7.8-0.5-14.4-1.6-16.7-10.8c-0.9-3.8-2.8-8.2-7.6-9.1c-6.3-1.1-12-3.8-17.9-6.1c-14.1-5.6-28.1-11.4-42.5-15.9
	c-17.8-5.6-33.9-15.3-50.5-23.5c-2.8-1.4-4.4-3.9-4.3-7.3c0.1-3.5-1.5-6-5-7.1c-3.6-1.2-5.3-3.8-4.9-7.7c0.2-2.3,0.1-4.7,0.4-7
	c0.4-2.6-0.4-4.7-2.7-5.9c-12.7-6.7-23.4-16.6-35.9-23.6c-9.7-5.4-18.1-12.3-25.8-20.3c-3.4-3.6-5.4-7.5-4.9-12.5
	c0.4-4,0.9-8,0.8-11.9c-0.5-15.1,1.4-29.9,5.6-44.4c1.7-6,2.7-13-0.9-17.9c-7.3-10-4.6-18.3,0.3-28.1c4-8.3,5.3-17.4-3.7-25.3
	c-8.8-7.7-9.6-18.7-3.9-28.8c1.1-1.9,1.9-3.9,3-5.8c7.5-12.4,15.6-24.3,25.8-34.6c2.5-2.5,5.1-5.1,4.9-8.9c-0.1-3,0.9-5.1,3.2-6.8
	c3-2.2,4.5-4.8,2.5-8.6c-1.5-2.9-0.4-5,2.5-5.8c12.3-3.4,24.3-8.2,37.4-8.2c17.8-0.1,35.6,1.3,53.4,1.8c21,0.6,41.9,0.7,62.9-0.4
	c19.5-1,39-0.3,58.5-0.3c14,0,28,0.2,41.9,2c14.1,1.9,28.2,2.4,42.3,2c2.6-0.1,5.3-0.6,7.9-1c1.1-0.2,2.4-0.5,2.5-2
	c0-1.1-1-1.7-1.9-2.1c-2.5-0.9-4.9-2.2-7.5-2.6c-21.4-2.9-42.4-7.8-63.4-13.1c-16.4-4.1-33.3-5.6-49.7-10.1
	c-23.1-6.4-46.6-11.4-68.9-20.2c-16.1-6.3-32.9-10.6-48.5-18.3c-3.2-1.6-6.8-2.7-10.4-3.4c-11.7-2.3-23.5-4.7-35.2-7.2
	c-19.9-4.3-40.3-4.5-60.3-7.9c-15.9-2.7-30.8-7-43.5-17.4c-18.3-14.9-38-27.5-61-34.1c-4.5-1.3-8.6-3.6-12.6-5.9
	c-8.4-4.8-16.7-9.6-25.2-14.3c-1.1-0.6-3.1-3.4-3.9,0.5c-2.3,4.7-0.3,8.9,1.8,12.7c3.9,7,8.4,13.8,14.8,18.7
	c11.1,8.6,22.3,16.9,32.1,26.9c11.8,11.9,25.1,22.3,35.7,35.5c6.8,8.4,13.4,16.9,20.5,25.1c4.6,5.3,8.9,10.8,12.9,16.5
	c3.9,5.7,4.1,11.7-0.1,17.2c-3.3,4.4-6.5,8.9-10.3,12.8c-13.8,14.1-27.6,28.3-41.4,42.5c-10.6,10.9-22.2,20.6-32.7,31.6
	c-3.3,3.5-6,7.6-9.7,10.7c-8.2,6.9-14.7,15.3-22.2,22.9c-7.2,7.4-14,15.1-21.6,22.2c-8.2,7.6-16.7,15-20.2,26.2
	c-1.7,5.5-4.7,8.8-10.5,9.9c-4.9,0.9-9.1,3.3-10.5,8.8c-0.7,2.5-2.9,3.1-5.1,3.5c-4.9,0.9-7.5,3.9-7.4,8.6c0.1,5.9-3.1,9.2-7.8,11.7
	c-3.4,1.8-6.9,3.3-10.2,5.2c-2.8,1.6-6.1,2.8-8,5.8C0,653,0,775.8,0,898.7c0,0.4,0,0.9,0,1.3H1439z"/>
</svg>
